<?xml version="1.0" encoding="UTF-8" standalone="no"?>
<svg
   width="631"
   height="343"
   viewBox="0 0 631 343"
   fill="none"
   version="1.1"
   id="svg119"
   sodipodi:docname="404.svg"
   inkscape:version="1.2.2 (732a01da63, 2022-12-09)"
   xmlns:inkscape="http://www.inkscape.org/namespaces/inkscape"
   xmlns:sodipodi="http://sodipodi.sourceforge.net/DTD/sodipodi-0.dtd"
   xmlns="http://www.w3.org/2000/svg"
   xmlns:svg="http://www.w3.org/2000/svg">
  <sodipodi:namedview
     id="namedview121"
     pagecolor="#505050"
     bordercolor="#eeeeee"
     borderopacity="1"
     inkscape:showpageshadow="0"
     inkscape:pageopacity="0"
     inkscape:pagecheckerboard="0"
     inkscape:deskcolor="#505050"
     showgrid="false"
     inkscape:zoom="3.212828"
     inkscape:cx="308.76225"
     inkscape:cy="173.05626"
     inkscape:window-width="1366"
     inkscape:window-height="705"
     inkscape:window-x="-8"
     inkscape:window-y="-8"
     inkscape:window-maximized="1"
     inkscape:current-layer="svg119" />
  <path
     d="m 317.525,343 c 171.101,0 309.805,-9.179 309.805,-20.502 0,-11.324 -138.704,-20.503 -309.805,-20.503 -171.101,0 -309.80573,9.179 -309.80573,20.503 C 7.71927,333.821 146.424,343 317.525,343 Z"
     fill="#f2f2f2"
     id="path2"
     clip-path="url(#clipPath1341)" />
  <path
     d="m 591.34,246.316 c 1.779,0.647 3.684,0.871 5.565,0.656 1.881,-0.215 3.686,-0.863 5.273,-1.895 1.587,-1.031 2.913,-2.417 3.873,-4.048 0.96,-1.631 1.528,-3.462 1.659,-5.35 0.131,-1.888 -0.178,-3.78 -0.903,-5.528 -0.725,-1.748 -1.847,-3.304 -3.276,-4.545 -1.43,-1.24 -3.128,-2.132 -4.961,-2.605 -1.833,-0.473 -3.751,-0.513 -5.602,-0.119 l 0.306,6.289 -2.977,-5.39 c -2.921,1.372 -5.178,3.848 -6.274,6.883 -0.39,1.063 -0.626,2.175 -0.703,3.305 -0.188,2.65 0.493,5.289 1.94,7.517 1.448,2.228 3.582,3.924 6.08,4.83 z"
     fill="#57b894"
     id="path54"
     clip-path="url(#clipPath1185)"
     style="fill:#008000" />
  <path
     d="m 606.068,319.259 c -1.05,-5.349 3.503,-10.09 8,-13.172 4.497,-3.082 9.752,-6.111 11.287,-11.341 2.205,-7.517 -4.364,-14.402 -9.477,-20.338 -3.793,-4.406 -7.051,-9.246 -9.704,-14.418 -1.064,-2.074 -2.042,-4.242 -2.322,-6.555 -0.403,-3.333 0.668,-6.648 1.747,-9.827 3.594,-10.588 7.437,-21.087 11.528,-31.497"
     stroke="#3f3d56"
     stroke-miterlimit="10"
     id="path56"
     clip-path="url(#clipPath1179)" />
  <path
     d="m 591.843,244.697 c 1.78,0.647 3.685,0.871 5.565,0.656 1.881,-0.215 3.686,-0.864 5.273,-1.895 1.588,-1.031 2.914,-2.417 3.874,-4.048 0.96,-1.631 1.528,-3.462 1.659,-5.35 0.131,-1.888 -0.178,-3.781 -0.904,-5.529 -0.725,-1.747 -1.847,-3.303 -3.276,-4.544 -1.429,-1.241 -3.128,-2.132 -4.961,-2.605 -1.833,-0.473 -3.75,-0.514 -5.602,-0.119 l 0.306,6.289 -2.976,-5.39 c -2.922,1.372 -5.179,3.848 -6.275,6.882 -0.389,1.063 -0.626,2.176 -0.703,3.306 -0.188,2.65 0.493,5.289 1.941,7.517 1.447,2.228 3.581,3.924 6.079,4.83 z"
     stroke="#3f3d56"
     stroke-miterlimit="10"
     id="path58"
     clip-path="url(#clipPath1173)" />
  <path
     d="m 604.574,209.939 c 0.699,-1.926 1.87,-3.645 3.408,-4.999 1.537,-1.354 3.391,-2.3 5.39,-2.75 l 1.007,5.979 1.865,-6.279 c 2.591,0.038 5.103,0.899 7.172,2.457 2.07,1.558 3.59,3.734 4.343,6.212 0.752,2.479 0.697,5.132 -0.158,7.577 -0.855,2.445 -2.464,4.555 -4.597,6.026 -2.133,1.471 -4.678,2.227 -7.268,2.157 -2.59,-0.069 -5.091,-0.959 -7.142,-2.542 -2.051,-1.583 -3.545,-3.776 -4.268,-6.264 -0.722,-2.487 -0.636,-5.14 0.248,-7.574 z"
     fill="#57b894"
     id="path60"
     clip-path="url(#clipPath1167)"
     style="fill:#008000" />
  <path
     d="m 605.246,207.78 c 0.698,-1.926 1.87,-3.645 3.407,-4.999 1.538,-1.354 3.391,-2.3 5.39,-2.749 l 1.007,5.978 1.866,-6.279 c 2.59,0.038 5.102,0.899 7.171,2.457 2.07,1.558 3.591,3.734 4.343,6.212 0.752,2.479 0.697,5.132 -0.158,7.577 -0.854,2.445 -2.464,4.556 -4.597,6.026 -2.133,1.471 -4.678,2.227 -7.268,2.157 -2.59,-0.069 -5.091,-0.959 -7.142,-2.542 -2.05,-1.583 -3.545,-3.776 -4.268,-6.264 -0.722,-2.487 -0.635,-5.139 0.248,-7.574 z"
     stroke="#3f3d56"
     stroke-miterlimit="10"
     id="path62"
     clip-path="url(#clipPath1161)" />
  <path
     d="m 613.732,274.529 c 2.822,1.023 5.921,0.973 8.708,-0.142 2.787,-1.114 5.066,-3.215 6.403,-5.901 1.336,-2.687 1.638,-5.771 0.846,-8.665 -0.791,-2.894 -2.621,-5.395 -5.139,-7.028 l -1.434,4.826 -1.016,-6.05 c -0.01,-0.005 -0.021,-0.009 -0.031,-0.012 -1.51,-0.548 -3.112,-0.794 -4.716,-0.723 -1.604,0.071 -3.179,0.458 -4.633,1.137 -1.455,0.68 -2.762,1.639 -3.845,2.824 -1.084,1.184 -1.924,2.57 -2.471,4.079 -0.548,1.509 -0.793,3.111 -0.721,4.714 0.072,1.604 0.46,3.178 1.14,4.631 0.681,1.454 1.641,2.76 2.827,3.842 1.185,1.083 2.573,1.921 4.082,2.468 z"
     fill="#57b894"
     id="path64"
     clip-path="url(#clipPath1155)"
     style="fill:#008000" />
  <path
     d="m 614.314,272.342 c 2.822,1.023 5.921,0.973 8.708,-0.142 2.786,-1.114 5.065,-3.215 6.402,-5.901 1.337,-2.686 1.638,-5.77 0.847,-8.664 -0.792,-2.895 -2.621,-5.396 -5.139,-7.029 l -1.434,4.826 -1.017,-6.05 c -0.01,-0.004 -0.02,-0.008 -0.031,-0.011 -1.509,-0.549 -3.111,-0.794 -4.716,-0.723 -1.604,0.071 -3.178,0.457 -4.633,1.136 -1.455,0.68 -2.761,1.639 -3.845,2.824 -1.084,1.184 -1.923,2.57 -2.471,4.079 -0.547,1.509 -0.792,3.111 -0.72,4.715 0.072,1.603 0.459,3.177 1.14,4.631 0.68,1.453 1.641,2.759 2.826,3.842 1.186,1.082 2.573,1.921 4.083,2.467 z"
     stroke="#3f3d56"
     stroke-miterlimit="10"
     id="path66"
     clip-path="url(#clipPath1149)" />
  <path
     d="m 601.007,294.82 c 0.485,2.76 1.905,5.269 4.021,7.106 2.116,1.838 4.799,2.892 7.6,2.986 2.802,0.094 5.55,-0.777 7.785,-2.468 2.235,-1.691 3.82,-4.099 4.49,-6.819 0.669,-2.721 0.383,-5.589 -0.812,-8.123 -1.194,-2.535 -3.224,-4.582 -5.749,-5.798 -2.525,-1.216 -5.392,-1.527 -8.119,-0.881 -2.727,0.646 -5.15,2.21 -6.86,4.429 l 5.446,8.194 -7.442,-4.349 c -0.577,1.852 -0.7,3.814 -0.36,5.723 z"
     fill="#57b894"
     id="path68"
     clip-path="url(#clipPath1143)"
     style="fill:#008000" />
  <path
     d="m 601.511,293.201 c 0.485,2.76 1.904,5.269 4.02,7.106 2.116,1.837 4.8,2.892 7.601,2.986 2.801,0.094 5.549,-0.777 7.784,-2.468 2.235,-1.691 3.82,-4.099 4.49,-6.819 0.67,-2.721 0.383,-5.589 -0.811,-8.123 -1.195,-2.535 -3.225,-4.582 -5.75,-5.798 -2.525,-1.216 -5.392,-1.527 -8.119,-0.881 -2.727,0.646 -5.149,2.21 -6.86,4.429 l 5.446,8.194 -7.441,-4.349 c -0.577,1.851 -0.701,3.814 -0.36,5.723 z"
     stroke="#3f3d56"
     stroke-miterlimit="10"
     id="path70"
     clip-path="url(#clipPath1137)" />
  <path
     d="m 5.29016,276.081 c 1.16891,0.425 2.42056,0.573 3.65627,0.432 1.23567,-0.142 2.42177,-0.568 3.46457,-1.246 1.0428,-0.677 1.9139,-1.588 2.5447,-2.659 0.6307,-1.072 1.0039,-2.275 1.0901,-3.515 0.0861,-1.241 -0.1171,-2.484 -0.5936,-3.633 -0.4766,-1.148 -1.2135,-2.17 -2.1526,-2.985 -0.9391,-0.815 -2.0548,-1.401 -3.2592,-1.712 -1.20428,-0.311 -2.46432,-0.337 -3.68075,-0.078 l 0.20101,4.132 -1.95566,-3.541 c -1.91937,0.901 -3.40216,2.528 -4.122532,4.521 -0.255833,0.699 -0.4113606,1.43 -0.4619427,2.172 -0.1234423,1.741 0.3242097,3.475 1.2751147,4.939 0.95091,1.464 2.35325,2.578 3.99452,3.173 z"
     fill="#57b894"
     id="path72"
     clip-path="url(#clipPath1131)"
     style="fill:#008000" />
  <path
     d="m 14.9668,324.006 c -0.6903,-3.514 2.3011,-6.629 5.256,-8.654 2.9548,-2.025 6.4074,-4.015 7.4156,-7.451 1.4489,-4.939 -2.8671,-9.462 -6.2263,-13.363 -2.4923,-2.895 -4.6326,-6.074 -6.376,-9.473 -0.758,-1.334 -1.2743,-2.792 -1.5251,-4.307 -0.2649,-2.189 0.4387,-4.367 1.1476,-6.456 2.3613,-6.956 4.886,-13.854 7.574,-20.694"
     stroke="#3f3d56"
     stroke-miterlimit="10"
     id="path74"
     clip-path="url(#clipPath1125)" />
  <path
     d="m 5.62088,275.018 c 1.16892,0.424 2.42056,0.572 3.65627,0.431 1.23575,-0.141 2.42175,-0.568 3.46455,-1.245 1.0428,-0.678 1.9139,-1.588 2.5447,-2.66 0.6308,-1.072 1.0039,-2.275 1.0901,-3.515 0.0861,-1.241 -0.1171,-2.484 -0.5936,-3.632 -0.4766,-1.149 -1.2135,-2.171 -2.1526,-2.986 -0.9391,-0.815 -2.0548,-1.401 -3.2591,-1.712 -1.20436,-0.311 -2.4644,-0.337 -3.68083,-0.078 l 0.20102,4.132 -1.95567,-3.541 c -1.91937,0.901 -3.40217,2.528 -4.122533,4.522 -0.25583,0.698 -0.411355,1.429 -0.46194,2.171 -0.123451,1.741 0.324198,3.475 1.275113,4.939 0.95091,1.464 2.35325,2.578 3.99452,3.174 z"
     stroke="#3f3d56"
     stroke-miterlimit="10"
     id="path76"
     clip-path="url(#clipPath1119)" />
  <path
     d="m 13.9853,252.181 c 0.4587,-1.265 1.2286,-2.395 2.2388,-3.285 1.0101,-0.889 2.2281,-1.51 3.5415,-1.806 l 0.6612,3.928 1.226,-4.125 c 1.7021,0.025 3.3522,0.59 4.7119,1.614 1.3598,1.024 2.3589,2.453 2.8531,4.081 0.4942,1.629 0.458,3.372 -0.1035,4.979 -0.5616,1.606 -1.6193,2.993 -3.0204,3.959 -1.4012,0.966 -3.0734,1.463 -4.7751,1.417 -1.7017,-0.046 -3.3449,-0.63 -4.6924,-1.67 -1.3474,-1.04 -2.3294,-2.481 -2.8041,-4.116 -0.4748,-1.634 -0.4177,-3.377 0.163,-4.976 z"
     fill="#57b894"
     id="path78"
     clip-path="url(#clipPath1113)"
     style="fill:#008000" />
  <path
     d="m 14.4262,250.762 c 0.4588,-1.265 1.2287,-2.394 2.2389,-3.284 1.0101,-0.89 2.228,-1.511 3.5415,-1.806 l 0.6612,3.928 1.2259,-4.126 c 1.7022,0.025 3.3522,0.591 4.712,1.615 1.3598,1.023 2.3589,2.453 2.8531,4.081 0.4942,1.628 0.458,3.372 -0.1036,4.978 -0.5615,1.607 -1.6192,2.993 -3.0204,3.96 -1.4011,0.966 -3.0733,1.462 -4.775,1.417 -1.7017,-0.046 -3.3449,-0.631 -4.6924,-1.671 -1.3474,-1.04 -2.3294,-2.481 -2.8042,-4.115 -0.4747,-1.634 -0.4176,-3.377 0.163,-4.977 z"
     stroke="#3f3d56"
     stroke-miterlimit="10"
     id="path80"
     clip-path="url(#clipPath1107)" />
  <path
     d="m 20.0023,294.618 c 1.8538,0.672 3.8902,0.639 5.7211,-0.094 1.8309,-0.732 3.3282,-2.112 4.2066,-3.877 0.8783,-1.765 1.0763,-3.791 0.5562,-5.692 -0.5201,-1.902 -1.722,-3.546 -3.3765,-4.618 l -0.942,3.17 -0.668,-3.974 c -0.0066,-0.003 -0.0134,-0.006 -0.0204,-0.008 -0.9916,-0.36 -2.0445,-0.522 -3.0985,-0.476 -1.0541,0.047 -2.0887,0.301 -3.0446,0.747 -0.956,0.447 -1.8145,1.077 -2.5267,1.855 -0.7121,0.778 -1.2638,1.689 -1.6236,2.681 -0.3598,0.991 -0.5207,2.044 -0.4733,3.098 0.0473,1.053 0.3019,2.087 0.7492,3.042 0.4473,0.956 1.0786,1.813 1.8576,2.525 0.7791,0.711 1.6908,1.262 2.6829,1.621 z"
     fill="#57b894"
     id="path82"
     clip-path="url(#clipPath1101)"
     style="fill:#008000" />
  <path
     d="m 20.3844,293.181 c 1.8538,0.672 3.8902,0.639 5.7211,-0.093 1.8309,-0.733 3.3282,-2.113 4.2066,-3.878 0.8783,-1.764 1.0763,-3.791 0.5562,-5.692 -0.5201,-1.902 -1.722,-3.545 -3.3765,-4.618 l -0.942,3.171 -0.6679,-3.975 c -0.0066,-0.003 -0.0135,-0.006 -0.0205,-0.008 -0.9913,-0.359 -2.0438,-0.52 -3.0973,-0.473 -1.0536,0.047 -2.0875,0.301 -3.0428,0.748 -1.9293,0.902 -3.4212,2.533 -4.1475,4.534 -0.7263,2.002 -0.6275,4.209 0.2747,6.138 0.9022,1.929 2.5338,3.42 4.5359,4.146 z"
     stroke="#3f3d56"
     stroke-miterlimit="10"
     id="path84"
     clip-path="url(#clipPath1095)" />
  <path
     d="m 11.6417,307.95 c 0.3187,1.813 1.2514,3.461 2.6416,4.668 1.3901,1.207 3.1533,1.9 4.9937,1.962 1.8404,0.062 3.6462,-0.511 5.1145,-1.621 1.4683,-1.111 2.5097,-2.693 2.9498,-4.481 0.44,-1.787 0.2518,-3.672 -0.533,-5.337 -0.7849,-1.665 -2.1186,-3.01 -3.7776,-3.809 -1.659,-0.799 -3.5424,-1.003 -5.3343,-0.579 -1.7918,0.425 -3.3832,1.452 -4.5072,2.91 l 3.5781,5.384 -4.889,-2.858 c -0.3791,1.217 -0.4602,2.506 -0.2366,3.761 z"
     fill="#57b894"
     id="path86"
     clip-path="url(#clipPath1089)"
     style="fill:#008000" />
  <path
     d="m 11.9724,306.886 c 0.3187,1.813 1.2514,3.461 2.6416,4.668 1.3902,1.208 3.1533,1.9 4.9937,1.962 1.8405,0.062 3.6462,-0.51 5.1145,-1.621 1.4683,-1.111 2.5098,-2.693 2.9498,-4.481 0.44,-1.787 0.2518,-3.672 -0.533,-5.337 -0.7848,-1.665 -2.1186,-3.01 -3.7776,-3.809 -1.659,-0.799 -3.5424,-1.003 -5.3342,-0.579 -1.7919,0.425 -3.3833,1.452 -4.5073,2.91 l 3.5781,5.384 -4.889,-2.858 c -0.3791,1.217 -0.4602,2.507 -0.2366,3.761 z"
     stroke="#3f3d56"
     stroke-miterlimit="10"
     id="path88"
     clip-path="url(#clipPath1083)" />
  <defs
     id="defs117">
    <clipPath
       clipPathUnits="userSpaceOnUse"
       id="clipPath1017">
      <g
         id="g1021">
        <rect
           width="631"
           height="343"
           fill="#ffffff"
           id="rect1019"
           x="0"
           y="0" />
      </g>
    </clipPath>
    <clipPath
       clipPathUnits="userSpaceOnUse"
       id="clipPath1023">
      <g
         id="g1027">
        <rect
           width="631"
           height="343"
           fill="#ffffff"
           id="rect1025"
           x="0"
           y="0" />
      </g>
    </clipPath>
    <clipPath
       clipPathUnits="userSpaceOnUse"
       id="clipPath1029">
      <g
         id="g1033">
        <rect
           width="631"
           height="343"
           fill="#ffffff"
           id="rect1031"
           x="0"
           y="0" />
      </g>
    </clipPath>
    <clipPath
       clipPathUnits="userSpaceOnUse"
       id="clipPath1035">
      <g
         id="g1039">
        <rect
           width="631"
           height="343"
           fill="#ffffff"
           id="rect1037"
           x="0"
           y="0" />
      </g>
    </clipPath>
    <clipPath
       clipPathUnits="userSpaceOnUse"
       id="clipPath1041">
      <g
         id="g1045">
        <rect
           width="631"
           height="343"
           fill="#ffffff"
           id="rect1043"
           x="0"
           y="0" />
      </g>
    </clipPath>
    <clipPath
       clipPathUnits="userSpaceOnUse"
       id="clipPath1047">
      <g
         id="g1051">
        <rect
           width="631"
           height="343"
           fill="#ffffff"
           id="rect1049"
           x="0"
           y="0" />
      </g>
    </clipPath>
    <clipPath
       clipPathUnits="userSpaceOnUse"
       id="clipPath1053">
      <g
         id="g1057">
        <rect
           width="631"
           height="343"
           fill="#ffffff"
           id="rect1055"
           x="0"
           y="0" />
      </g>
    </clipPath>
    <clipPath
       clipPathUnits="userSpaceOnUse"
       id="clipPath1059">
      <g
         id="g1063">
        <rect
           width="631"
           height="343"
           fill="#ffffff"
           id="rect1061"
           x="0"
           y="0" />
      </g>
    </clipPath>
    <clipPath
       clipPathUnits="userSpaceOnUse"
       id="clipPath1065">
      <g
         id="g1069">
        <rect
           width="631"
           height="343"
           fill="#ffffff"
           id="rect1067"
           x="0"
           y="0" />
      </g>
    </clipPath>
    <clipPath
       clipPathUnits="userSpaceOnUse"
       id="clipPath1071">
      <g
         id="g1075">
        <rect
           width="631"
           height="343"
           fill="#ffffff"
           id="rect1073"
           x="0"
           y="0" />
      </g>
    </clipPath>
    <clipPath
       clipPathUnits="userSpaceOnUse"
       id="clipPath1077">
      <g
         id="g1081">
        <rect
           width="631"
           height="343"
           fill="#ffffff"
           id="rect1079"
           x="0"
           y="0" />
      </g>
    </clipPath>
    <clipPath
       clipPathUnits="userSpaceOnUse"
       id="clipPath1083">
      <g
         id="g1087">
        <rect
           width="631"
           height="343"
           fill="#ffffff"
           id="rect1085"
           x="0"
           y="0" />
      </g>
    </clipPath>
    <clipPath
       clipPathUnits="userSpaceOnUse"
       id="clipPath1089">
      <g
         id="g1093">
        <rect
           width="631"
           height="343"
           fill="#ffffff"
           id="rect1091"
           x="0"
           y="0" />
      </g>
    </clipPath>
    <clipPath
       clipPathUnits="userSpaceOnUse"
       id="clipPath1095">
      <g
         id="g1099">
        <rect
           width="631"
           height="343"
           fill="#ffffff"
           id="rect1097"
           x="0"
           y="0" />
      </g>
    </clipPath>
    <clipPath
       clipPathUnits="userSpaceOnUse"
       id="clipPath1101">
      <g
         id="g1105">
        <rect
           width="631"
           height="343"
           fill="#ffffff"
           id="rect1103"
           x="0"
           y="0" />
      </g>
    </clipPath>
    <clipPath
       clipPathUnits="userSpaceOnUse"
       id="clipPath1107">
      <g
         id="g1111">
        <rect
           width="631"
           height="343"
           fill="#ffffff"
           id="rect1109"
           x="0"
           y="0" />
      </g>
    </clipPath>
    <clipPath
       clipPathUnits="userSpaceOnUse"
       id="clipPath1113">
      <g
         id="g1117">
        <rect
           width="631"
           height="343"
           fill="#ffffff"
           id="rect1115"
           x="0"
           y="0" />
      </g>
    </clipPath>
    <clipPath
       clipPathUnits="userSpaceOnUse"
       id="clipPath1119">
      <g
         id="g1123">
        <rect
           width="631"
           height="343"
           fill="#ffffff"
           id="rect1121"
           x="0"
           y="0" />
      </g>
    </clipPath>
    <clipPath
       clipPathUnits="userSpaceOnUse"
       id="clipPath1125">
      <g
         id="g1129">
        <rect
           width="631"
           height="343"
           fill="#ffffff"
           id="rect1127"
           x="0"
           y="0" />
      </g>
    </clipPath>
    <clipPath
       clipPathUnits="userSpaceOnUse"
       id="clipPath1131">
      <g
         id="g1135">
        <rect
           width="631"
           height="343"
           fill="#ffffff"
           id="rect1133"
           x="0"
           y="0" />
      </g>
    </clipPath>
    <clipPath
       clipPathUnits="userSpaceOnUse"
       id="clipPath1137">
      <g
         id="g1141">
        <rect
           width="631"
           height="343"
           fill="#ffffff"
           id="rect1139"
           x="0"
           y="0" />
      </g>
    </clipPath>
    <clipPath
       clipPathUnits="userSpaceOnUse"
       id="clipPath1143">
      <g
         id="g1147">
        <rect
           width="631"
           height="343"
           fill="#ffffff"
           id="rect1145"
           x="0"
           y="0" />
      </g>
    </clipPath>
    <clipPath
       clipPathUnits="userSpaceOnUse"
       id="clipPath1149">
      <g
         id="g1153">
        <rect
           width="631"
           height="343"
           fill="#ffffff"
           id="rect1151"
           x="0"
           y="0" />
      </g>
    </clipPath>
    <clipPath
       clipPathUnits="userSpaceOnUse"
       id="clipPath1155">
      <g
         id="g1159">
        <rect
           width="631"
           height="343"
           fill="#ffffff"
           id="rect1157"
           x="0"
           y="0" />
      </g>
    </clipPath>
    <clipPath
       clipPathUnits="userSpaceOnUse"
       id="clipPath1161">
      <g
         id="g1165">
        <rect
           width="631"
           height="343"
           fill="#ffffff"
           id="rect1163"
           x="0"
           y="0" />
      </g>
    </clipPath>
    <clipPath
       clipPathUnits="userSpaceOnUse"
       id="clipPath1167">
      <g
         id="g1171">
        <rect
           width="631"
           height="343"
           fill="#ffffff"
           id="rect1169"
           x="0"
           y="0" />
      </g>
    </clipPath>
    <clipPath
       clipPathUnits="userSpaceOnUse"
       id="clipPath1173">
      <g
         id="g1177">
        <rect
           width="631"
           height="343"
           fill="#ffffff"
           id="rect1175"
           x="0"
           y="0" />
      </g>
    </clipPath>
    <clipPath
       clipPathUnits="userSpaceOnUse"
       id="clipPath1179">
      <g
         id="g1183">
        <rect
           width="631"
           height="343"
           fill="#ffffff"
           id="rect1181"
           x="0"
           y="0" />
      </g>
    </clipPath>
    <clipPath
       clipPathUnits="userSpaceOnUse"
       id="clipPath1185">
      <g
         id="g1189">
        <rect
           width="631"
           height="343"
           fill="#ffffff"
           id="rect1187"
           x="0"
           y="0" />
      </g>
    </clipPath>
    <clipPath
       clipPathUnits="userSpaceOnUse"
       id="clipPath1191">
      <g
         id="g1195">
        <rect
           width="631"
           height="343"
           fill="#ffffff"
           id="rect1193"
           x="0"
           y="0" />
      </g>
    </clipPath>
    <clipPath
       clipPathUnits="userSpaceOnUse"
       id="clipPath1197">
      <g
         id="g1201">
        <rect
           width="631"
           height="343"
           fill="#ffffff"
           id="rect1199"
           x="0"
           y="0" />
      </g>
    </clipPath>
    <clipPath
       clipPathUnits="userSpaceOnUse"
       id="clipPath1203">
      <g
         id="g1207">
        <rect
           width="631"
           height="343"
           fill="#ffffff"
           id="rect1205"
           x="0"
           y="0" />
      </g>
    </clipPath>
    <clipPath
       clipPathUnits="userSpaceOnUse"
       id="clipPath1209">
      <g
         id="g1213">
        <rect
           width="631"
           height="343"
           fill="#ffffff"
           id="rect1211"
           x="0"
           y="0" />
      </g>
    </clipPath>
    <clipPath
       clipPathUnits="userSpaceOnUse"
       id="clipPath1215">
      <g
         id="g1219">
        <rect
           width="631"
           height="343"
           fill="#ffffff"
           id="rect1217"
           x="0"
           y="0" />
      </g>
    </clipPath>
    <clipPath
       clipPathUnits="userSpaceOnUse"
       id="clipPath1221">
      <g
         id="g1225">
        <rect
           width="631"
           height="343"
           fill="#ffffff"
           id="rect1223"
           x="0"
           y="0" />
      </g>
    </clipPath>
    <clipPath
       clipPathUnits="userSpaceOnUse"
       id="clipPath1227">
      <g
         id="g1231">
        <rect
           width="631"
           height="343"
           fill="#ffffff"
           id="rect1229"
           x="0"
           y="0" />
      </g>
    </clipPath>
    <clipPath
       clipPathUnits="userSpaceOnUse"
       id="clipPath1233">
      <g
         id="g1237">
        <rect
           width="631"
           height="343"
           fill="#ffffff"
           id="rect1235"
           x="0"
           y="0" />
      </g>
    </clipPath>
    <clipPath
       clipPathUnits="userSpaceOnUse"
       id="clipPath1239">
      <g
         id="g1243">
        <rect
           width="631"
           height="343"
           fill="#ffffff"
           id="rect1241"
           x="0"
           y="0" />
      </g>
    </clipPath>
    <clipPath
       clipPathUnits="userSpaceOnUse"
       id="clipPath1245">
      <g
         id="g1249">
        <rect
           width="631"
           height="343"
           fill="#ffffff"
           id="rect1247"
           x="0"
           y="0" />
      </g>
    </clipPath>
    <clipPath
       clipPathUnits="userSpaceOnUse"
       id="clipPath1251">
      <g
         id="g1255">
        <rect
           width="631"
           height="343"
           fill="#ffffff"
           id="rect1253"
           x="0"
           y="0" />
      </g>
    </clipPath>
    <clipPath
       clipPathUnits="userSpaceOnUse"
       id="clipPath1257">
      <g
         id="g1261">
        <rect
           width="631"
           height="343"
           fill="#ffffff"
           id="rect1259"
           x="0"
           y="0" />
      </g>
    </clipPath>
    <clipPath
       clipPathUnits="userSpaceOnUse"
       id="clipPath1263">
      <g
         id="g1267">
        <rect
           width="631"
           height="343"
           fill="#ffffff"
           id="rect1265"
           x="0"
           y="0" />
      </g>
    </clipPath>
    <clipPath
       clipPathUnits="userSpaceOnUse"
       id="clipPath1269">
      <g
         id="g1273">
        <rect
           width="631"
           height="343"
           fill="#ffffff"
           id="rect1271"
           x="0"
           y="0" />
      </g>
    </clipPath>
    <clipPath
       clipPathUnits="userSpaceOnUse"
       id="clipPath1275">
      <g
         id="g1279">
        <rect
           width="631"
           height="343"
           fill="#ffffff"
           id="rect1277"
           x="0"
           y="0" />
      </g>
    </clipPath>
    <clipPath
       clipPathUnits="userSpaceOnUse"
       id="clipPath1281">
      <g
         id="g1285">
        <rect
           width="631"
           height="343"
           fill="#ffffff"
           id="rect1283"
           x="0"
           y="0" />
      </g>
    </clipPath>
    <clipPath
       clipPathUnits="userSpaceOnUse"
       id="clipPath1287">
      <g
         id="g1291">
        <rect
           width="631"
           height="343"
           fill="#ffffff"
           id="rect1289"
           x="0"
           y="0" />
      </g>
    </clipPath>
    <clipPath
       clipPathUnits="userSpaceOnUse"
       id="clipPath1293">
      <g
         id="g1297">
        <rect
           width="631"
           height="343"
           fill="#ffffff"
           id="rect1295"
           x="0"
           y="0" />
      </g>
    </clipPath>
    <clipPath
       clipPathUnits="userSpaceOnUse"
       id="clipPath1299">
      <g
         id="g1303">
        <rect
           width="631"
           height="343"
           fill="#ffffff"
           id="rect1301"
           x="0"
           y="0" />
      </g>
    </clipPath>
    <clipPath
       clipPathUnits="userSpaceOnUse"
       id="clipPath1305">
      <g
         id="g1309">
        <rect
           width="631"
           height="343"
           fill="#ffffff"
           id="rect1307"
           x="0"
           y="0" />
      </g>
    </clipPath>
    <clipPath
       clipPathUnits="userSpaceOnUse"
       id="clipPath1311">
      <g
         id="g1315">
        <rect
           width="631"
           height="343"
           fill="#ffffff"
           id="rect1313"
           x="0"
           y="0" />
      </g>
    </clipPath>
    <clipPath
       clipPathUnits="userSpaceOnUse"
       id="clipPath1317">
      <g
         id="g1321">
        <rect
           width="631"
           height="343"
           fill="#ffffff"
           id="rect1319"
           x="0"
           y="0" />
      </g>
    </clipPath>
    <clipPath
       clipPathUnits="userSpaceOnUse"
       id="clipPath1323">
      <g
         id="g1327">
        <rect
           width="631"
           height="343"
           fill="#ffffff"
           id="rect1325"
           x="0"
           y="0" />
      </g>
    </clipPath>
    <clipPath
       clipPathUnits="userSpaceOnUse"
       id="clipPath1329">
      <g
         id="g1333">
        <rect
           width="631"
           height="343"
           fill="#ffffff"
           id="rect1331"
           x="0"
           y="0" />
      </g>
    </clipPath>
    <clipPath
       clipPathUnits="userSpaceOnUse"
       id="clipPath1335">
      <g
         id="g1339">
        <rect
           width="631"
           height="343"
           fill="#ffffff"
           id="rect1337"
           x="0"
           y="0" />
      </g>
    </clipPath>
    <clipPath
       clipPathUnits="userSpaceOnUse"
       id="clipPath1341">
      <g
         id="g1345">
        <rect
           width="631"
           height="343"
           fill="#ffffff"
           id="rect1343"
           x="0"
           y="0" />
      </g>
    </clipPath>
  </defs>
  <path
     d="m 268.66806,128.31677 q 0,6.77815 -0.35523,20.45235 -0.35523,13.67419 -0.35523,20.51128 0,6.42452 0.0888,19.27354 0.0888,12.79009 0.0888,19.21461 0,1.94503 -1.1101,1.94503 -0.66605,0 -1.99817,-0.17682 -1.33212,-0.17683 -1.99817,-0.17683 -0.71046,0 -2.17578,0.17683 -1.46534,0.17682 -2.17579,0.17682 -0.79927,0 -1.90937,-1.94503 -9.59122,-17.15169 -29.08451,-51.16035 -3.01946,-5.18676 -3.5079,-5.77616 -0.44404,0 -0.44404,2.41656 0,9.07683 0.22202,27.28944 0.22202,18.15367 0.22202,27.23051 0,1.94503 -0.88808,1.94503 -0.75486,0 -2.309,-0.17682 -1.55413,-0.17683 -2.309,-0.17683 -0.79926,0 -2.39781,0.17683 -1.55412,0.17682 -2.35339,0.17682 -1.11011,0 -1.11011,-1.17881 0,-6.48346 0.44404,-19.5093 0.48845,-13.08479 0.48845,-19.62718 0,-7.1318 -0.39964,-25.69805 -0.0888,-4.83312 -0.44403,-14.49937 l -0.0444,-0.76622 q -0.0444,-0.88411 1.06569,-0.94305 2.88625,-0.0589 4.52919,-0.23576 0.62166,-0.0589 2.35341,-0.47153 1.46532,-0.35364 2.309,-0.35364 0.39963,0 1.37652,1.70928 10.21288,18.62519 31.26029,55.40405 0.93248,1.53246 1.73175,2.65233 0.31083,-2.47551 0.31083,-11.31658 0,-7.66226 -0.44404,-22.98679 -0.39963,-15.32452 -0.39963,-22.92785 0,-1.94503 0.88807,-1.94503 0.79928,0 2.39781,0.17682 1.64295,0.17682 2.44221,0.17682 0.84367,0 2.53102,-0.17682 1.68735,-0.17682 2.53102,-0.17682 0.93248,0 0.93248,1.29669 z"
     id="path1345"
     style="font-size:146.735px;font-family:'Berlin Sans FB';-inkscape-font-specification:'Berlin Sans FB';fill:#ff6600;stroke-width:177.38" />
  <path
     d="m 418.7265,138.15983 q 0,1.53245 -0.79926,1.53245 -1.24331,0 -15.71895,-0.70728 -0.39964,17.97685 -0.39964,28.82189 0,6.77816 0.35523,20.33448 0.39963,13.55631 0.39963,20.33446 0,1.23775 -1.28771,1.23775 -0.79927,0 -2.44221,-0.17682 -1.64294,-0.17683 -2.48661,-0.17683 -0.79927,0 -2.44222,0.17683 -1.64293,0.17682 -2.4422,0.17682 -1.11011,0 -1.11011,-1.47351 0,-6.71922 0.39964,-20.15765 0.44405,-13.49737 0.44405,-20.27553 0,-10.4914 -0.48845,-28.82189 -11.45619,0.94304 -16.78465,0.94304 -0.53284,0 -0.53284,-0.5894 0,-1.06093 0.39963,-3.06491 0.48845,-2.59338 0.57725,-3.0649 0.0888,-2.06292 0.62165,-5.71723 0.22202,-0.76623 0.75487,-0.76623 l 0.53285,0.0589 q 15.71895,1.23775 20.73658,1.23775 4.44039,0 14.52006,-0.8841 6.88259,-0.58941 5.72809,-0.58941 1.1545,0 1.28771,1.06093 -0.0888,-0.64834 -0.0888,5.71723 0,0.76623 0.13321,2.41656 0.13321,1.59139 0.13321,2.41656 z"
     id="path1339"
     style="font-size:146.735px;font-family:'Berlin Sans FB';-inkscape-font-specification:'Berlin Sans FB';fill:#ff6600;stroke-width:177.38" />
  <text
     xml:space="preserve"
     style="font-size:104.772px;font-family:'Berlin Sans FB';-inkscape-font-specification:'Berlin Sans FB';fill:#2b1100;stroke-width:177.38"
     x="188.63448"
     y="286.22754"
     id="text1150"
     transform="scale(0.86796725,1.1521172)"><tspan
       sodipodi:role="line"
       id="tspan1148"
       x="188.63448"
       y="286.22754"
       style="fill:#2b1100;stroke-width:177.38">FOUND</tspan></text>
  <text
     xml:space="preserve"
     style="font-size:33.1244px;font-family:'Berlin Sans FB';-inkscape-font-specification:'Berlin Sans FB';fill:#2b2d42;fill-opacity:1;stroke:none;stroke-width:1.4906;stroke-dasharray:none;stroke-opacity:1"
     x="27.974382"
     y="82.964615"
     id="text1746"><tspan
       sodipodi:role="line"
       id="tspan1744"
       x="27.974382"
       y="82.964615"
       style="stroke-width:1.4906">According to your filter, That Prodcuts are</tspan></text>
  <g
     id="g1252"
     transform="matrix(0.40394005,0,0,0.40394005,198.44458,158.91698)">
    <path
       d="m 305.651,98.0508 c -50.476,0 -86.717,32.3722 -86.717,107.9072 0,85.606 36.241,108.267 86.717,108.267 50.475,0 88.875,-24.819 88.875,-108.267 0,-89.203 -38.4,-107.9072 -88.875,-107.9072 z m 0.331,187.7582 c -34.96,0 -53.225,-20.503 -53.225,-79.796 0,-52.317 19.012,-79.906 53.973,-79.906 34.961,0 53.973,18.122 53.973,79.906 0,57.798 -19.76,79.796 -54.721,79.796 z"
       fill="#2b2d42"
       id="path4"
       clip-path="url(#clipPath1335)"
       transform="translate(0,-171.5)" />
    <path
       d="m 317.165,91.5764 c -50.476,0 -86.717,32.3726 -86.717,107.9076 0,85.606 36.241,108.266 86.717,108.266 50.476,0 88.876,-24.818 88.876,-108.266 0,-89.204 -38.4,-107.9076 -88.876,-107.9076 z m 0.332,187.7586 c -34.961,0 -53.226,-20.503 -53.226,-79.796 0,-52.317 19.013,-79.907 53.973,-79.907 34.961,0 53.974,18.123 53.974,79.907 -0.001,57.798 -19.761,79.796 -54.721,79.796 z"
       stroke="#3f3d56"
       stroke-miterlimit="10"
       id="path14"
       clip-path="url(#clipPath1305)"
       transform="translate(0,-171.5)" />
    <path
       opacity="0.1"
       d="m 276.705,3.14056 c 0.093,0 0.185,0.00369 0.278,0.00701 -1.96,0.07123 -3.816,0.89967 -5.178,2.31102 -1.361,1.41135 -2.122,3.29557 -2.122,5.25621 0,1.9607 0.761,3.8449 2.122,5.2562 1.362,1.4114 3.218,2.2398 5.178,2.311 -0.093,0.0033 -0.185,0.007 -0.278,0.007 -2.008,-0.0017 -3.934,-0.8005 -5.353,-2.2208 -1.42,-1.4202 -2.217,-3.3457 -2.217,-5.3534 0,-2.00765 0.797,-3.93318 2.217,-5.35343 1.419,-1.42026 3.345,-2.21904 5.353,-2.22081 z"
       fill="#000000"
       id="path48"
       clip-path="url(#clipPath1203)" />
    <path
       d="m 282.464,200.268 c 5.514,0 9.984,-5.783 9.984,-12.916 0,-7.134 -4.47,-12.917 -9.984,-12.917 -5.514,0 -9.984,5.783 -9.984,12.917 0,7.133 4.47,12.916 9.984,12.916 z"
       fill="#2f2e41"
       id="path90"
       clip-path="url(#clipPath1077)"
       transform="translate(0,-171.5)" />
    <path
       d="m 336.79,200.561 c 5.514,0 9.984,-5.782 9.984,-12.916 0,-7.133 -4.47,-12.916 -9.984,-12.916 -5.514,0 -9.984,5.783 -9.984,12.916 0,7.134 4.47,12.916 9.984,12.916 z"
       fill="#2f2e41"
       id="path92"
       clip-path="url(#clipPath1071)"
       transform="translate(0,-171.5)" />
    <path
       d="m 329.155,225.806 c 0,5.836 -8.152,10.568 -18.207,10.568 -10.054,0 -18.206,-4.732 -18.206,-10.568 0,-5.054 6.114,-9.282 14.283,-10.315 1.301,-0.171 2.611,-0.256 3.923,-0.252 2.199,-0.007 4.391,0.229 6.537,0.704 6.825,1.521 11.67,5.366 11.67,9.863 z"
       fill="#2f2e41"
       id="path94"
       clip-path="url(#clipPath1065)"
       transform="translate(0,-171.5)" />
    <path
       d="m 284.813,197.332 c 5.514,0 9.984,-5.783 9.984,-12.916 0,-7.133 -4.47,-12.916 -9.984,-12.916 -5.514,0 -9.984,5.783 -9.984,12.916 0,7.133 4.47,12.916 9.984,12.916 z"
       stroke="#3f3d56"
       stroke-miterlimit="10"
       id="path96"
       clip-path="url(#clipPath1059)"
       transform="translate(0,-171.5)" />
    <path
       d="m 339.139,197.626 c 5.514,0 9.984,-5.783 9.984,-12.916 0,-7.134 -4.47,-12.916 -9.984,-12.916 -5.514,0 -9.984,5.782 -9.984,12.916 0,7.133 4.47,12.916 9.984,12.916 z"
       stroke="#3f3d56"
       stroke-miterlimit="10"
       id="path98"
       clip-path="url(#clipPath1053)"
       transform="translate(0,-171.5)" />
    <path
       d="m 313.298,233.439 c 10.055,0 18.206,-4.732 18.206,-10.568 0,-5.836 -8.151,-10.568 -18.206,-10.568 -10.056,0 -18.207,4.732 -18.207,10.568 0,5.836 8.151,10.568 18.207,10.568 z"
       stroke="#3f3d56"
       stroke-miterlimit="10"
       id="path100"
       clip-path="url(#clipPath1047)"
       transform="translate(0,-171.5)" />
    <path
       d="m 317.702,216.824 c 0.005,0.738 -0.272,1.45 -0.775,1.991 -0.237,0.259 -0.526,0.467 -0.847,0.609 -0.322,0.142 -0.669,0.216 -1.02,0.218 h -5.874 c -0.723,-0.025 -1.408,-0.336 -1.903,-0.864 -0.495,-0.528 -0.761,-1.231 -0.739,-1.954 -0.004,-0.573 0.164,-1.133 0.481,-1.61 1.3,-0.182 2.611,-0.272 3.923,-0.269 2.201,-0.007 4.395,0.245 6.537,0.752 0.145,0.358 0.219,0.741 0.217,1.127 z"
       fill="#ffffff"
       id="path102"
       clip-path="url(#clipPath1041)"
       transform="translate(0,-171.5)" />
    <path
       d="m 284.813,183.829 c 1.622,0 2.937,-1.314 2.937,-2.935 0,-1.622 -1.315,-2.936 -2.937,-2.936 -1.622,0 -2.936,1.314 -2.936,2.936 0,1.621 1.314,2.935 2.936,2.935 z"
       fill="#ffffff"
       id="path104"
       clip-path="url(#clipPath1035)"
       transform="translate(0,-171.5)" />
    <path
       d="m 339.433,183.829 c 1.622,0 2.936,-1.314 2.936,-2.935 0,-1.622 -1.314,-2.936 -2.936,-2.936 -1.622,0 -2.937,1.314 -2.937,2.936 0,1.621 1.315,2.935 2.937,2.935 z"
       fill="#ffffff"
       id="path106"
       clip-path="url(#clipPath1029)"
       transform="translate(0,-171.5)" />
    <path
       opacity="0.3"
       d="m 342.369,211.423 c 1.622,0 2.937,-1.315 2.937,-2.936 0,-1.621 -1.315,-2.935 -2.937,-2.935 -1.621,0 -2.936,1.314 -2.936,2.935 0,1.621 1.315,2.936 2.936,2.936 z"
       fill="#6c63ff"
       id="path108"
       clip-path="url(#clipPath1023)"
       transform="translate(0,-171.5)" />
    <path
       opacity="0.3"
       d="m 270.718,211.423 c 1.622,0 2.936,-1.315 2.936,-2.936 0,-1.621 -1.314,-2.935 -2.936,-2.935 -1.622,0 -2.937,1.314 -2.937,2.935 0,1.621 1.315,2.936 2.937,2.936 z"
       fill="#6c63ff"
       id="path110"
       clip-path="url(#clipPath1017)"
       transform="translate(0,-171.5)" />
  </g>
  <text
     xml:space="preserve"
     style="font-size:168.36px;font-family:'Berlin Sans FB';-inkscape-font-specification:'Berlin Sans FB';fill:#ff6600;fill-opacity:1;stroke:none;stroke-width:7.5762;stroke-dasharray:none;stroke-opacity:1"
     x="295.94397"
     y="205.23303"
     id="text3243"
     transform="scale(0.95408972,1.0481195)"><tspan
       sodipodi:role="line"
       id="tspan3241"
       x="295.94397"
       y="205.23303"
       style="stroke-width:7.5762">o</tspan></text>
</svg>
