<?xml version="1.0" encoding="UTF-8" standalone="no"?>
<!-- Uploaded to: SVG Repo, www.svgrepo.com, Generator: SVG Repo Mixer Tools -->

<svg
   height="800"
   width="1622.2427"
   version="1.1"
   id="Layer_1"
   viewBox="0 0 1005.7905 496"
   xml:space="preserve"
   sodipodi:docname="shopping-bag-svgrepo-com (5).svg"
   inkscape:version="1.2.2 (732a01da63, 2022-12-09)"
   xmlns:inkscape="http://www.inkscape.org/namespaces/inkscape"
   xmlns:sodipodi="http://sodipodi.sourceforge.net/DTD/sodipodi-0.dtd"
   xmlns="http://www.w3.org/2000/svg"
   xmlns:svg="http://www.w3.org/2000/svg"><defs
   id="defs41" /><sodipodi:namedview
   id="namedview39"
   pagecolor="#505050"
   bordercolor="#eeeeee"
   borderopacity="1"
   inkscape:showpageshadow="0"
   inkscape:pageopacity="0"
   inkscape:pagecheckerboard="0"
   inkscape:deskcolor="#505050"
   showgrid="false"
   inkscape:zoom="0.2435099"
   inkscape:cx="-24.639656"
   inkscape:cy="550.28564"
   inkscape:window-width="1366"
   inkscape:window-height="705"
   inkscape:window-x="-8"
   inkscape:window-y="-8"
   inkscape:window-maximized="1"
   inkscape:current-layer="Layer_1" />
<path
   style="fill:#3e3f3f"
   d="m 809.79043,176.8 c -0.8,0 -1.6,0 -2.4,0 -8.8,-1.6 -14.4,-9.6 -12.8,-18.4 l 12.8,-72 c -1.6,-30.4 -25.6,-54.4 -56,-54.4 -30.4,0 -55.2,24.8 -55.2,55.2 0,0.8 0,1.6 0,2.4 l -12.8,73.6 c -1.6,8.8 -9.6,14.4 -18.4,12.8 -8.8,-1.6 -14.4,-9.6 -12.8,-18.4 l 12.8,-72.8 c 0,-46.4 39.2,-84.8 86.4,-84.8 48,0 87.2,39.2 87.2,87.2 0,0.8 0,1.6 0,2.4 l -12.8,73.6 c -1.6,8 -8,13.6 -16,13.6 z"
   id="path2" />
<path
   style="fill:#1d1e1e"
   d="m 807.39043,176.8 c 0.8,0 1.6,0 2.4,0 8,0 14.4,-5.6 16,-12.8 l 11.2,-64.8 c -8,-39.2 -43.2,-69.6 -85.6,-69.6 -47.2,0 -86.4,38.4 -87.2,85.6 l -9.6,55.2 c 2.4,3.2 5.6,5.6 9.6,6.4 8.8,1.6 16.8,-4 18.4,-12.8 l 12.8,-73.6 c 0,-0.8 0,-1.6 0,-2.4 0,-30.4 24.8,-55.2 55.2,-55.2 30.4,0 54.4,24 55.2,53.6 l -2.4,14.4 c 1.6,4.8 2.4,9.6 2.4,15.2 l -9.6,55.2 c 3.2,2.4 6.4,4.8 11.2,5.6 z"
   id="path4" />
<path
   style="fill:#18456d"
   d="M 1004.9904,471.2 960.99043,148.8 c -1.6,-9.6 -9.6,-16.8 -20,-16.8 h -318.4 c -9.6,0 -18.4,7.2 -20,16.8 l -44.8,324.8 c -0.8,5.6 0.8,11.2 4.8,16 4,4 9.6,6.4 15.2,6.4 h 408 v 0 c 11.2,0 19.99997,-8.8 19.99997,-20 0,-1.6 0,-3.2 -0.8,-4.8 z"
   id="path6" />
<g
   id="g14"
   transform="translate(533.69043)">
	<polygon
   style="fill:#0b3249"
   points="344.9,169.6 416.9,370.4 436.9,217.6 366.5,147.2 "
   id="polygon8" />
	<polygon
   style="fill:#0b3249"
   points="201.7,169.6 223.3,147.2 357.7,281.6 336.1,445.6 "
   id="polygon10" />
	<path
   style="fill:#0b3249"
   d="m 147.3,496 h 304.8 v 0 c 11.2,0 20,-8.8 20,-20 0,-1.6 0,-3.2 -0.8,-4.8 l -44,-322.4 c -1.6,-9.6 -9.6,-16.8 -20,-16.8"
   id="path12" />
</g>
<path
   style="fill:#1d7099"
   d="m 688.99043,476 c 0,-1.6 0,-3.2 -0.8,-4.8 l -44,-322.4 c -1.6,-9.6 -9.6,-16.8 -20,-16.8 h -1.6 c -9.6,0 -18.4,7.2 -20,16.8 l -44.8,324.8 c -0.8,5.6 0.8,11.2 4.8,16 4,4 9.6,6.4 15.2,6.4 h 91.2 v 0 c 11.2,0 20,-8.8 20,-20 z"
   id="path16" />
<g
   id="g22"
   transform="translate(533.69043)">
	<path
   style="fill:#1b5a89"
   d="m 28.9,489.6 c 4,4 9.6,6.4 15.2,6.4 h 91.2 v 0 c 11.2,0 20,-8.8 20,-20 0,-1.6 0,-3.2 -0.8,-4.8 l -44,-322.4 c -1.6,-9.6 -9.6,-16.8 -20,-16.8 h -1.6"
   id="path18" />
	<path
   style="fill:#1b5a89"
   d="m 356.1,176.8 c -7.2,0 -14.4,-5.6 -16,-12.8 l -12,-74.4 c 0,-0.8 0,-1.6 0,-2.4 0,-30.4 -24.8,-55.2 -55.2,-55.2 -30.4,0 -54.4,24 -55.2,53.6 l 12.8,72 c 1.6,8.8 -4,16.8 -12.8,18.4 -8.8,1.6 -16.8,-4 -18.4,-12.8 L 186.5,89.6 c 0,-0.8 0,-1.6 0,-2.4 0,-48 39.2,-87.2 87.2,-87.2 46.4,0 84.8,38.4 85.6,85.6 l 12.8,72.8 c 1.6,8.8 -4,16.8 -12.8,18.4 -0.8,0 -1.6,0 -3.2,0 z"
   id="path20" />
</g>
<path
   style="fill:#18456d"
   d="m 893.79043,87.2 c -12.8,-32.8 -44,-56 -81.6,-56 -48,0 -87.2,39.2 -87.2,87.2 v 2.4 l 8,47.2 c 3.2,6.4 9.6,10.4 16.8,8.8 8.8,-1.6 16,-10.4 14.4,-19.2 l -12.8,-72 c 1.6,-30.4 24.8,-53.6 55.2,-53.6 30.4,0 55.2,24.8 55.2,55.2 v 2.4 c 2.89992,13.73621 3.08895,22.54506 4.90072,30.38446 l 6.4,44 c 2.4,5.6 7.27579,12.81554 16.69928,12.81554 h 3.2 c 8.8,-1.6 14.4,-9.6 12.8,-18.4 z"
   id="path24"
   sodipodi:nodetypes="csscccccsscccsccc" />
<path
   style="fill:#ff667c"
   d="m 830.59043,276 c -9.6,0 -18.4,4 -26.4,12 -8,-8 -16.8,-12 -26.4,-12 -25.6,0 -46.4,19.2 -46.4,44 -0.8,30.4 17.6,57.6 35.2,72.8 12,10.4 24.8,16.8 35.2,16.8 0.8,0 1.6,0 2.4,0 0.8,0 1.6,0 2.4,0 10.4,0 23.2,-6.4 35.2,-16.8 17.6,-15.2 35.2,-42.4 35.2,-72.8 0,-24.8 -20.8,-44 -46.4,-44 z"
   id="path26" />
<path
   style="fill:#ed266e"
   d="m 830.59043,276 c -9.6,0 -18.4,4 -26.4,12 -0.8,-0.8 -1.6,-0.8 -2.4,-1.6 l -37.6,104.8 c 0.8,0.8 1.6,1.6 2.4,1.6 12,10.4 24.8,16.8 35.2,16.8 0.8,0 1.6,0 2.4,0 0.8,0 1.6,0 2.4,0 10.4,0 23.2,-6.4 35.2,-16.8 17.6,-15.2 35.2,-42.4 35.2,-72.8 0,-24.8 -20.8,-44 -46.4,-44 z"
   id="path28" />
<path
   style="fill:#ff667c"
   d="m 716.99043,233.6 c -3.2,0 -5.6,1.6 -8,4 -2.4,-2.4 -5.6,-4 -8,-4 -8,0 -14.4,5.6 -14.4,13.6 0,9.6 5.6,17.6 10.4,22.4 4,3.2 8,4.8 10.4,4.8 h 0.8 0.8 c 3.2,0 7.2,-1.6 10.4,-4.8 5.6,-4.8 11.2,-12.8 10.4,-22.4 0.8,-8 -4.8,-13.6 -12.8,-13.6 z"
   id="path30" />
<path
   style="fill:#ed266e"
   d="m 716.99043,233.6 c -3.2,0 -5.6,1.6 -8,4 0,0 -0.8,0 -0.8,-0.8 l -11.2,32 c 0,0 0.8,0 0.8,0.8 4,3.2 8,4.8 10.4,4.8 h 0.8 0.8 c 3.2,0 7.2,-1.6 10.4,-4.8 5.6,-4.8 11.2,-12.8 10.4,-22.4 0,-8 -5.6,-13.6 -13.6,-13.6 z"
   id="path32" />
<path
   style="fill:#ff667c"
   d="m 787.39043,210.4 c -1.6,0 -2.4,0.8 -4,1.6 -0.8,-0.8 -2.4,-1.6 -4,-1.6 -4,0 -6.4,2.4 -6.4,6.4 0,4 2.4,8 4.8,10.4 1.6,1.6 3.2,2.4 4.8,2.4 v 0 0 c 1.6,0 3.2,-0.8 4.8,-2.4 2.4,-2.4 4.8,-6.4 4.8,-10.4 1.6,-4 -1.6,-6.4 -4.8,-6.4 z"
   id="path34" />
<path
   style="fill:#ed266e"
   d="m 787.39043,210.4 c -1.6,0 -2.4,0.8 -4,1.6 v 0 l -5.6,15.2 v 0 c 1.6,1.6 3.2,2.4 4.8,2.4 v 0 0 c 1.6,0 3.2,-0.8 4.8,-2.4 2.4,-2.4 4.8,-6.4 4.8,-10.4 1.6,-4 -1.6,-6.4 -4.8,-6.4 z"
   id="path36" />
<path
   id="path567"
   style="font-size:229.718px;font-family:'Berlin Sans FB';-inkscape-font-specification:'Berlin Sans FB';opacity:0.403346;fill:#00bdff;fill-opacity:0.386946;stroke-width:41.6592"
   d="m 73.13336,214.34926 c -22.3586,0 -40.34374,8.30102 -53.95332,24.90172 -8.53415,10.2809 -14.20312,22.23684 -17.04152,35.84859 h 28.81304 c 1.83179,-6.45001 4.59813,-12.23141 8.30703,-17.34062 8.22558,-11.29147 19.74081,-16.93739 34.54684,-16.93739 7.7769,0 14.8816,1.83233 21.3125,5.49645 3.88846,2.24334 8.03775,5.6077 12.44965,10.09437 3.58934,3.66412 5.87089,5.49645 6.84301,5.49645 0.82255,0 3.2152,-3.10312 7.17843,-9.30969 3.96323,-6.28134 5.9445,-10.05831 5.9445,-11.32953 0,-1.04689 -0.59816,-2.35552 -1.79461,-3.92586 C 113.32577,222.01428 95.79107,214.34926 73.13336,214.34926 Z M 0.2652,288.89457 C 0.09407,291.44158 0,294.03382 0,296.6809 c 0,2.45521 0.0867,4.85706 0.23129,7.22445 h 28.39043 c -0.23374,-2.59037 -0.35602,-5.25853 -0.35602,-8.01035 0,-2.40012 0.10009,-4.72863 0.27973,-7.00043 z m 1.72195,28.80578 c 2.75055,13.80335 8.3623,25.86968 16.85746,36.18524 13.46003,16.37636 31.40611,24.56507 53.83949,24.56507 21.53604,0 39.59444,-8.44995 54.17613,-25.34976 1.42079,-1.64511 2.13125,-2.91712 2.13125,-3.81445 0,-0.59822 -2.2425,-3.85028 -6.72918,-9.75774 -4.48667,-5.98223 -6.955,-8.97426 -7.40367,-8.97426 -0.37389,0 -2.5053,1.83233 -6.39375,5.49645 -4.63623,4.41189 -9.19692,7.8141 -13.68359,10.20699 -6.80479,3.66412 -13.87164,5.49645 -21.19988,5.49645 -14.73126,0 -26.20986,-5.79485 -34.43543,-17.38543 -3.49503,-4.97232 -6.13884,-10.53302 -7.94981,-16.66856 z" /><path
   d="m 280.19311,373.85132 q 0,1.34601 -2.692,1.34601 -2.13118,0 -6.28136,-0.3365 -4.03801,-0.33651 -6.16918,-0.33651 -2.13117,0 -6.39352,0.33651 -4.26234,0.3365 -6.39352,0.3365 -3.14067,0 -8.07602,-16.93722 -4.82318,-17.04938 -9.8707,-17.27372 -4.15017,-0.22433 -21.64823,-0.22433 H 194.9462 q -18.50755,0 -21.0874,0.22433 -4.03801,0.3365 -8.63685,17.27372 -4.48668,16.93722 -6.95436,16.93722 h -25.23757 q -2.24334,0 -2.24334,-1.57034 0,-1.12167 1.57034,-5.04752 l 27.48091,-75.15188 q 3.47718,-9.08553 21.0874,-52.38199 3.14067,-7.17868 8.52469,-21.64823 1.346,-4.26234 2.91634,-4.26234 2.13117,0 6.28135,0.56083 4.15018,0.56084 6.28135,0.56084 2.01901,0 6.05702,-0.56084 4.15018,-0.673 6.05702,-0.673 1.0095,0 2.80417,4.15018 2.69201,6.28135 26.58358,67.6367 33.76226,86.25641 33.76226,87.04158 z M 227.9233,311.93514 q 0,-3.25284 -10.09503,-29.16342 -9.75853,-25.1254 -13.79654,-32.97709 -23.21857,59.22417 -23.21857,62.02835 0,3.81367 8.52469,4.48668 0.44867,0.11216 10.99237,0.11216 h 11.5532 q 16.03988,0 16.03988,-4.48668 z"
   id="path569"
   style="font-size:229.718px;font-family:'Berlin Sans FB';-inkscape-font-specification:'Berlin Sans FB';opacity:0.403346;fill:#00bdff;fill-opacity:0.386946;stroke-width:41.6592" /><path
   d="m 414.12052,374.29999 q 0,0.89734 -1.79467,0.89734 -2.13117,0 -6.50568,-0.3365 -4.37452,-0.33651 -6.50569,-0.33651 -2.35551,0 -7.06652,0.33651 -4.59885,0.3365 -6.95435,0.3365 -2.57984,0 -3.92585,-2.80418 -3.58934,-7.62735 -20.41439,-47.2223 -1.68251,-4.03801 -8.18819,-4.93535 -1.45817,-0.11217 -10.2072,-0.11217 -15.47904,0 -18.39538,0.44867 -2.35551,0.3365 -2.35551,5.72052 0,7.85169 0.673,23.55507 0.78517,15.59121 0.78517,23.33073 0,2.35551 -2.24334,2.35551 -2.24334,0 -6.84219,-0.44867 -4.48668,-0.56084 -6.84218,-0.56084 -1.90684,0 -5.83269,0.33651 -3.92584,0.3365 -5.83268,0.3365 -2.80418,0 -2.80418,-2.57984 0,-12.45054 1.12167,-37.35161 1.23384,-25.01324 1.23384,-37.46378 0,-35.44477 -2.57984,-75.60055 l -0.11217,-1.79467 q -0.11216,-2.24334 4.71102,-2.24334 9.64636,0 28.82691,-0.44867 19.29273,-0.56084 28.82692,-0.56084 24.90107,0 39.93145,11.8897 16.60072,13.12354 16.60072,37.23945 0,16.60071 -4.48668,26.13491 -4.71102,10.09502 -17.49805,19.18055 -2.13118,1.45817 -2.13118,2.80418 0,1.57033 13.34787,29.83642 13.46004,28.26608 13.46004,30.06075 z M 383.38677,272.56453 q 0,-20.30223 -11.66537,-27.14441 -8.63686,-5.04752 -31.07026,-5.04752 -18.17105,0 -18.50755,2.91634 -0.78517,6.05702 -0.78517,32.41626 v 21.4239 q 0.3365,0.22433 1.45817,0.44867 2.01901,0.22433 6.61785,0.56083 10.65587,0.56084 22.99424,0.56084 30.95809,0 30.95809,-26.13491 z"
   id="path571"
   style="font-size:229.718px;font-family:'Berlin Sans FB';-inkscape-font-specification:'Berlin Sans FB';opacity:0.403346;fill:#00bdff;fill-opacity:0.386946;stroke-width:41.6592" /><path
   d="m 533.69051,239.0266 q 0,2.91634 -2.01901,2.91634 -3.14067,0 -39.70711,-1.34601 -1.0095,34.21094 -1.0095,54.84966 0,12.89921 0.89733,38.69762 1.0095,25.79841 1.0095,38.69761 0,2.35551 -3.25284,2.35551 -2.019,0 -6.16918,-0.3365 -4.15018,-0.33651 -6.28135,-0.33651 -2.01901,0 -6.16919,0.33651 -4.15018,0.3365 -6.16918,0.3365 -2.80418,0 -2.80418,-2.80418 0,-12.78704 1.0095,-38.36111 1.12167,-25.68624 1.12167,-38.58545 0,-19.96572 -1.23383,-54.84966 -28.93909,1.79468 -42.39913,1.79468 -1.346,0 -1.346,-1.12167 0,-2.01901 1.0095,-5.83269 1.23384,-4.93534 1.45817,-5.83268 0.22434,-3.92585 1.57034,-10.8802 0.56084,-1.45817 1.90684,-1.45817 l 1.346,0.11217 q 39.70712,2.3555 52.38199,2.3555 11.2167,0 36.67861,-1.6825 17.38588,-1.12167 14.46954,-1.12167 2.91634,0 3.25284,2.019 -0.22433,-1.23383 -0.22433,10.8802 0,1.45817 0.3365,4.59885 0.3365,3.02851 0.3365,4.59885 z"
   id="path573"
   style="font-size:229.718px;font-family:'Berlin Sans FB';-inkscape-font-specification:'Berlin Sans FB';opacity:0.403346;fill:#00bdff;fill-opacity:0.386946;stroke-width:41.6592" /><path
   id="path639"
   style="opacity:0.403346;fill:#00bdff;fill-opacity:0.386946;stroke-width:2.13143"
   d="m -377.3528,280.50093 h 154.05019 c 0.96439,0 1.74078,0.77638 1.74078,1.74077 v 10.31299 c 0,0.96439 -0.77639,1.74078 -1.74078,1.74078 H -377.3528 c -0.96439,0 -1.74077,-0.77639 -1.74077,-1.74078 V 282.2417 c 0,-0.96439 0.77638,-1.74077 1.74077,-1.74077 z m 0,-28.80582 h 154.05019 c 0.96439,0 1.74078,0.77639 1.74078,1.74078 v 10.31299 c 0,0.96439 -0.77639,1.74077 -1.74078,1.74077 H -377.3528 c -0.96439,0 -1.74077,-0.77638 -1.74077,-1.74077 v -10.31299 c 0,-0.96439 0.77638,-1.74078 1.74077,-1.74078 z" /></svg>
