<?xml version="1.0" encoding="UTF-8" standalone="no"?>
<!-- Uploaded to: SVG Repo, www.svgrepo.com, Generator: SVG Repo Mixer Tools -->

<svg
   height="800"
   width="2510.1084"
   version="1.1"
   id="Layer_1"
   viewBox="0 0 1556.2673 496"
   xml:space="preserve"
   sodipodi:docname="cart.svg"
   inkscape:version="1.2.2 (732a01da63, 2022-12-09)"
   xmlns:inkscape="http://www.inkscape.org/namespaces/inkscape"
   xmlns:sodipodi="http://sodipodi.sourceforge.net/DTD/sodipodi-0.dtd"
   xmlns="http://www.w3.org/2000/svg"
   xmlns:svg="http://www.w3.org/2000/svg"><defs
   id="defs41"><inkscape:path-effect
     effect="fillet_chamfer"
     id="path-effect1815"
     is_visible="true"
     lpeversion="1"
     nodesatellites_param="F,0,0,1,0,9.9019967,0,1 @ F,0,0,1,0,17.2048,0,1 @ F,0,0,1,0,12.602541,0,1 @ F,0,0,1,0,9.2129765,0,1 @ F,0,0,1,0,17.44792,0,1 @ F,0,0,1,0,10.164686,0,1 @ F,0,0,1,0,0,0,1 @ F,0,0,1,0,0,0,1 @ F,0,0,1,0,0,0,1 @ F,0,0,1,0,0,0,1 @ F,0,0,1,0,0,0,1 @ F,0,0,1,0,0,0,1 @ F,0,0,1,0,0,0,1 @ F,0,0,1,0,0,0,1 @ F,0,0,1,0,0,0,1 @ F,0,0,1,0,0,0,1"
     unit="px"
     method="auto"
     mode="F"
     radius="0"
     chamfer_steps="1"
     flexible="false"
     use_knot_distance="true"
     apply_no_radius="true"
     apply_with_radius="true"
     only_selected="false"
     hide_knots="false" /></defs><sodipodi:namedview
   id="namedview39"
   pagecolor="#505050"
   bordercolor="#eeeeee"
   borderopacity="1"
   inkscape:showpageshadow="0"
   inkscape:pageopacity="0"
   inkscape:pagecheckerboard="0"
   inkscape:deskcolor="#505050"
   showgrid="false"
   inkscape:zoom="0.08609375"
   inkscape:cx="-940.83485"
   inkscape:cy="1614.5191"
   inkscape:window-width="1366"
   inkscape:window-height="705"
   inkscape:window-x="-8"
   inkscape:window-y="-8"
   inkscape:window-maximized="1"
   inkscape:current-layer="Layer_1" />
<path
   id="rect4457-0"
   style="fill:#28170b;fill-opacity:1;stroke-width:2.99832"
   d="m 166.40183,186.38914 c -44.88301,0 -81.015352,36.13356 -81.015352,81.01656 v 52.21078 c 0,44.88302 36.132342,81.01655 81.015352,81.01655 h 385.88459 v -8.617 c 0,-7.99559 4.1455,-14.43197 9.29518,-14.43197 5.14962,0 9.29515,6.43638 9.29515,14.43197 v 8.617 h 10.21547 v -8.617 c 0,-7.99559 4.14557,-14.43197 9.29518,-14.43197 5.14962,0 9.29515,6.43638 9.29515,14.43197 v 8.617 h 385.88457 c 44.88308,0 81.01658,-36.13353 81.01658,-81.01655 V 267.4057 c 0,-44.883 -36.1335,-81.01656 -81.01658,-81.01656 H 599.68255 v 8.11449 c 0,7.99557 -4.14553,14.43316 -9.29515,14.43316 -5.14961,0 -9.29518,-6.43759 -9.29518,-14.43316 v -8.11449 h -10.21547 v 8.11449 c 0,7.99557 -4.14553,14.43316 -9.29515,14.43316 -5.14968,0 -9.29518,-6.43759 -9.29518,-14.43316 v -8.11449 z" /><g
   id="g509"
   transform="matrix(4.9600001,0,0,4.9600001,34.841945,42.720421)"
   style="fill:#f0e68c;fill-opacity:1"><circle
     style="fill:#f0e68c;fill-opacity:1;stroke:#28170b;stroke-width:0.406199"
     id="path387"
     cx="20.276382"
     cy="50.562622"
     r="5.001545" /><circle
     style="fill:#f0e68c;fill-opacity:1;stroke:#28170b;stroke-width:0.406199"
     id="circle412"
     cx="200.31268"
     cy="50.562622"
     r="5.001545" /></g><path
   style="fill:#3e3f3f"
   d="m 1360.2673,176.8 c -0.8,0 -1.6,0 -2.4,0 -8.8,-1.6 -14.4,-9.6 -12.8,-18.4 l 12.8,-72 c -1.6,-30.4 -25.6,-54.4 -56,-54.4 -30.4,0 -55.2,24.8 -55.2,55.2 0,0.8 0,1.6 0,2.4 l -12.8,73.6 c -1.6,8.8 -9.6,14.4 -18.4,12.8 -8.8,-1.6 -14.4,-9.6 -12.8,-18.4 l 12.8,-72.8 c 0,-46.4 39.2,-84.8 86.4,-84.8 48,0 87.2,39.2 87.2,87.2 0,0.8 0,1.6 0,2.4 l -12.8,73.6 c -1.6,8 -8,13.6 -16,13.6 z"
   id="path2" />
<path
   style="fill:#1d1e1e"
   d="m 1357.8673,176.8 c 0.8,0 1.6,0 2.4,0 8,0 14.4,-5.6 16,-12.8 l 11.2,-64.8 c -8,-39.2 -43.2,-69.6 -85.6,-69.6 -47.2,0 -86.4,38.4 -87.2,85.6 l -9.6,55.2 c 2.4,3.2 5.6,5.6 9.6,6.4 8.8,1.6 16.8,-4 18.4,-12.8 l 12.8,-73.6 c 0,-0.8 0,-1.6 0,-2.4 0,-30.4 24.8,-55.2 55.2,-55.2 30.4,0 54.4,24 55.2,53.6 l -2.4,14.4 c 1.6,4.8 2.4,9.6 2.4,15.2 l -9.6,55.2 c 3.2,2.4 6.4,4.8 11.2,5.6 z"
   id="path4" />
<path
   style="fill:#18456d"
   d="m 1555.4673,471.2 -44,-322.4 c -1.6,-9.6 -9.6,-16.8 -20,-16.8 h -318.4 c -9.6,0 -18.4,7.2 -20,16.8 l -44.8,324.8 c -0.8,5.6 0.8,11.2 4.8,16 4,4 9.6,6.4 15.2,6.4 h 408 v 0 c 11.2,0 20,-8.8 20,-20 0,-1.6 0,-3.2 -0.8,-4.8 z"
   id="path6" />
<g
   id="g14"
   transform="translate(1084.1673)">
	<polygon
   style="fill:#0b3249"
   points="436.9,217.6 366.5,147.2 344.9,169.6 416.9,370.4 "
   id="polygon8" />
	<polygon
   style="fill:#0b3249"
   points="357.7,281.6 336.1,445.6 201.7,169.6 223.3,147.2 "
   id="polygon10" />
	<path
   style="fill:#0b3249"
   d="m 147.3,496 h 304.8 v 0 c 11.2,0 20,-8.8 20,-20 0,-1.6 0,-3.2 -0.8,-4.8 l -44,-322.4 c -1.6,-9.6 -9.6,-16.8 -20,-16.8"
   id="path12" />
</g>
<path
   style="fill:#1d7099"
   d="m 1239.4673,476 c 0,-1.6 0,-3.2 -0.8,-4.8 l -44,-322.4 c -1.6,-9.6 -9.6,-16.8 -20,-16.8 h -1.6 c -9.6,0 -18.4,7.2 -20,16.8 l -44.8,324.8 c -0.8,5.6 0.8,11.2 4.8,16 4,4 9.6,6.4 15.2,6.4 h 91.2 v 0 c 11.2,0 20,-8.8 20,-20 z"
   id="path16" />
<g
   id="g22"
   transform="translate(1084.1673)">
	<path
   style="fill:#1b5a89"
   d="m 28.9,489.6 c 4,4 9.6,6.4 15.2,6.4 h 91.2 v 0 c 11.2,0 20,-8.8 20,-20 0,-1.6 0,-3.2 -0.8,-4.8 l -44,-322.4 c -1.6,-9.6 -9.6,-16.8 -20,-16.8 h -1.6"
   id="path18" />
	<path
   style="fill:#1b5a89"
   d="m 356.1,176.8 c -7.2,0 -14.4,-5.6 -16,-12.8 l -12,-74.4 c 0,-0.8 0,-1.6 0,-2.4 0,-30.4 -24.8,-55.2 -55.2,-55.2 -30.4,0 -54.4,24 -55.2,53.6 l 12.8,72 c 1.6,8.8 -4,16.8 -12.8,18.4 -8.8,1.6 -16.8,-4 -18.4,-12.8 L 186.5,89.6 c 0,-0.8 0,-1.6 0,-2.4 0,-48 39.2,-87.2 87.2,-87.2 46.4,0 84.8,38.4 85.6,85.6 l 12.8,72.8 c 1.6,8.8 -4,16.8 -12.8,18.4 -0.8,0 -1.6,0 -3.2,0 z"
   id="path20" />
</g>
<path
   style="fill:#18456d"
   d="m 1444.2673,87.2 c -12.8,-32.8 -44,-56 -81.6,-56 -48,0 -87.2,39.2 -87.2,87.2 v 2.4 l 8,47.2 c 3.2,6.4 9.6,10.4 16.8,8.8 8.8,-1.6 16,-10.4 14.4,-19.2 l -12.8,-72 c 1.6,-30.4 24.8,-53.6 55.2,-53.6 30.4,0 55.2,24.8 55.2,55.2 v 2.4 c 2.8999,13.73621 3.089,22.54506 4.9007,30.38446 l 6.4,44 c 2.4,5.6 7.2758,12.81554 16.6993,12.81554 h 3.2 c 8.8,-1.6 14.4,-9.6 12.8,-18.4 z"
   id="path24"
   sodipodi:nodetypes="csscccccsscccsccc" />
<path
   style="fill:#ff667c"
   d="m 1381.0673,276 c -9.6,0 -18.4,4 -26.4,12 -8,-8 -16.8,-12 -26.4,-12 -25.6,0 -46.4,19.2 -46.4,44 -0.8,30.4 17.6,57.6 35.2,72.8 12,10.4 24.8,16.8 35.2,16.8 0.8,0 1.6,0 2.4,0 0.8,0 1.6,0 2.4,0 10.4,0 23.2,-6.4 35.2,-16.8 17.6,-15.2 35.2,-42.4 35.2,-72.8 0,-24.8 -20.8,-44 -46.4,-44 z"
   id="path26" />
<path
   style="fill:#ed266e"
   d="m 1381.0673,276 c -9.6,0 -18.4,4 -26.4,12 -0.8,-0.8 -1.6,-0.8 -2.4,-1.6 l -37.6,104.8 c 0.8,0.8 1.6,1.6 2.4,1.6 12,10.4 24.8,16.8 35.2,16.8 0.8,0 1.6,0 2.4,0 0.8,0 1.6,0 2.4,0 10.4,0 23.2,-6.4 35.2,-16.8 17.6,-15.2 35.2,-42.4 35.2,-72.8 0,-24.8 -20.8,-44 -46.4,-44 z"
   id="path28" />
<path
   style="fill:#ff667c"
   d="m 1267.4673,233.6 c -3.2,0 -5.6,1.6 -8,4 -2.4,-2.4 -5.6,-4 -8,-4 -8,0 -14.4,5.6 -14.4,13.6 0,9.6 5.6,17.6 10.4,22.4 4,3.2 8,4.8 10.4,4.8 h 0.8 0.8 c 3.2,0 7.2,-1.6 10.4,-4.8 5.6,-4.8 11.2,-12.8 10.4,-22.4 0.8,-8 -4.8,-13.6 -12.8,-13.6 z"
   id="path30" />
<path
   style="fill:#ed266e"
   d="m 1267.4673,233.6 c -3.2,0 -5.6,1.6 -8,4 0,0 -0.8,0 -0.8,-0.8 l -11.2,32 c 0,0 0.8,0 0.8,0.8 4,3.2 8,4.8 10.4,4.8 h 0.8 0.8 c 3.2,0 7.2,-1.6 10.4,-4.8 5.6,-4.8 11.2,-12.8 10.4,-22.4 0,-8 -5.6,-13.6 -13.6,-13.6 z"
   id="path32" />
<path
   style="fill:#ff667c"
   d="m 1337.8673,210.4 c -1.6,0 -2.4,0.8 -4,1.6 -0.8,-0.8 -2.4,-1.6 -4,-1.6 -4,0 -6.4,2.4 -6.4,6.4 0,4 2.4,8 4.8,10.4 1.6,1.6 3.2,2.4 4.8,2.4 v 0 0 c 1.6,0 3.2,-0.8 4.8,-2.4 2.4,-2.4 4.8,-6.4 4.8,-10.4 1.6,-4 -1.6,-6.4 -4.8,-6.4 z"
   id="path34" />
<path
   style="fill:#ed266e"
   d="m 1337.8673,210.4 c -1.6,0 -2.4,0.8 -4,1.6 v 0 l -5.6,15.2 v 0 c 1.6,1.6 3.2,2.4 4.8,2.4 v 0 0 c 1.6,0 3.2,-0.8 4.8,-2.4 2.4,-2.4 4.8,-6.4 4.8,-10.4 1.6,-4 -1.6,-6.4 -4.8,-6.4 z"
   id="path36" />
<g
   id="g1775"
   transform="translate(281.25333)"><path
     id="path567"
     style="font-size:229.718px;font-family:'Berlin Sans FB';-inkscape-font-specification:'Berlin Sans FB';opacity:1;fill:#ff6100;fill-opacity:1;stroke-width:30.1227"
     d="m 150.89386,236.472 c -16.16696,0 -29.17155,6.00226 -39.0123,18.00581 -6.17083,7.43387 -10.26992,16.0789 -12.322294,25.92122 h 20.833984 c 1.32452,-4.66385 3.32479,-8.84423 6.0066,-12.53857 5.94771,-8.16458 14.27409,-12.247 24.97996,-12.247 5.62328,0 10.76051,1.32491 15.41053,3.97435 2.81165,1.6221 5.8119,4.05478 9.00203,7.29898 2.59536,2.64943 4.24509,3.97435 4.94801,3.97435 0.59476,0 2.32483,-2.24379 5.19054,-6.73161 2.86571,-4.54188 4.29832,-7.27291 4.29832,-8.19209 0,-0.75699 -0.43252,-1.70322 -1.29764,-2.8387 C 179.95597,242.01439 167.27707,236.472 150.89386,236.472 Z m -52.689145,53.90184 c -0.123739,1.84168 -0.191759,3.71606 -0.191759,5.6301 0,1.77531 0.06269,3.51202 0.16724,5.22382 H 118.7086 c -0.16901,-1.87304 -0.25743,-3.80231 -0.25743,-5.79208 0,-1.73547 0.0724,-3.41915 0.20227,-5.06184 z m 1.245099,20.82874 c 1.988856,9.98085 6.046566,18.70571 12.189206,26.16464 9.73261,11.84132 22.70896,17.76238 38.92999,17.76238 15.57216,0 28.62973,-6.10995 39.17339,-18.32977 1.02733,-1.18955 1.54105,-2.1093 1.54105,-2.75814 0,-0.43256 -1.6215,-2.78404 -4.8657,-7.05558 -3.24421,-4.3256 -5.02899,-6.48905 -5.35342,-6.48905 -0.27034,0 -1.81151,1.3249 -4.62314,3.97434 -3.35235,3.19013 -6.65006,5.65018 -9.89427,7.38042 -4.92037,2.64943 -10.03023,3.97434 -15.32909,3.97434 -10.65181,0 -18.9517,-4.19011 -24.8994,-12.57096 -2.52717,-3.59537 -4.43884,-7.61617 -5.74831,-12.05262 z" /><path
     d="m 300.61355,351.80393 q 0,0.97326 -1.94652,0.97326 -1.541,0 -4.54189,-0.24331 -2.91979,-0.24332 -4.46079,-0.24332 -1.54099,0 -4.62299,0.24332 -3.08198,0.24331 -4.62299,0.24331 -2.27094,0 -5.83957,-12.24687 -3.48752,-12.32798 -7.13725,-12.49019 -3.00089,-0.16221 -15.65329,-0.16221 h -12.81461 q -13.38234,0 -15.24777,0.16221 -2.91978,0.24331 -6.24509,12.49019 -3.2442,12.24687 -5.02852,12.24687 h -18.24866 q -1.6221,0 -1.6221,-1.13546 0,-0.81106 1.13547,-3.64974 l 19.87077,-54.34043 q 2.51425,-6.56953 15.24776,-37.8761 2.27094,-5.19073 6.16399,-15.65329 0.97326,-3.082 2.10873,-3.082 1.541,0 4.54189,0.40553 3.00089,0.40553 4.54189,0.40553 1.45989,0 4.37967,-0.40553 3.00089,-0.48663 4.37968,-0.48663 0.72995,0 2.02763,3.00088 1.94652,4.5419 19.22192,48.90641 24.41264,62.36983 24.41264,62.93757 z M 262.81856,307.0339 q 0,-2.35205 -7.29946,-21.08733 -7.05614,-18.16755 -9.97593,-23.84491 -16.78877,42.82351 -16.78877,44.85113 0,2.75758 6.164,3.24422 0.32442,0.0811 7.9483,0.0811 h 8.35383 q 11.59803,0 11.59803,-3.2442 z"
     id="path569"
     style="font-size:229.718px;font-family:'Berlin Sans FB';-inkscape-font-specification:'Berlin Sans FB';opacity:1;fill:#ff6100;fill-opacity:1;stroke-width:30.1227" /><path
     d="m 397.45308,352.12835 q 0,0.64884 -1.29768,0.64884 -1.54099,0 -4.70409,-0.24331 -3.1631,-0.24332 -4.70409,-0.24332 -1.70322,0 -5.10963,0.24332 -3.32531,0.24331 -5.02852,0.24331 -1.86541,0 -2.83868,-2.02763 -2.59536,-5.51514 -14.76113,-34.14526 -1.21658,-2.91978 -5.92068,-3.56862 -1.05436,-0.0811 -7.38057,-0.0811 -11.1925,0 -13.30123,0.32442 -1.70321,0.24331 -1.70321,4.13636 0,5.67736 0.48663,17.03208 0.56773,11.27361 0.56773,16.86986 0,1.70322 -1.6221,1.70322 -1.6221,0 -4.94742,-0.32443 -3.2442,-0.40553 -4.9474,-0.40553 -1.37879,0 -4.21747,0.24332 -2.83868,0.24332 -4.21747,0.24332 -2.02763,0 -2.02763,-1.86542 0,-9.00267 0.81105,-27.00801 0.89216,-18.08644 0.89216,-27.08912 0,-25.62921 -1.86542,-54.66485 l -0.0811,-1.29768 q -0.0811,-1.6221 3.40642,-1.6221 6.97504,0 20.84401,-0.32442 13.95009,-0.40554 20.84403,-0.40554 18.00533,0 28.87342,8.59715 12.00356,9.4893 12.00356,26.92691 0,12.00356 -3.2442,18.89749 -3.40643,7.29946 -12.65241,13.86897 -1.541,1.05437 -1.541,2.02764 0,1.13547 9.65151,21.57396 9.73262,20.43849 9.73262,21.73617 z M 375.23028,278.566 q 0,-14.68003 -8.43493,-19.62744 -6.24509,-3.64974 -22.46613,-3.64974 -13.13902,0 -13.38233,2.10874 -0.56774,4.37968 -0.56774,23.43938 v 15.49108 q 0.24331,0.16221 1.05436,0.32442 1.4599,0.16221 4.7852,0.40552 7.705,0.40554 16.62656,0.40554 22.38501,0 22.38501,-18.8975 z"
     id="path571"
     style="font-size:229.718px;font-family:'Berlin Sans FB';-inkscape-font-specification:'Berlin Sans FB';opacity:1;fill:#ff6100;fill-opacity:1;stroke-width:30.1227" /><path
     d="m 483.91114,254.31557 q 0,2.10873 -1.4599,2.10873 -2.27094,0 -28.71121,-0.97326 -0.72994,24.73706 -0.72994,39.6604 0,9.3271 0.64883,27.98128 0.72995,18.65418 0.72995,27.98126 0,1.70321 -2.35205,1.70321 -1.45989,0 -4.46078,-0.24331 -3.00089,-0.24332 -4.54189,-0.24332 -1.45989,0 -4.46078,0.24332 -3.00089,0.24331 -4.46078,0.24331 -2.02763,0 -2.02763,-2.02763 0,-9.24599 0.72994,-27.73795 0.81106,-18.57307 0.81106,-27.90017 0,-14.4367 -0.89216,-39.6604 -20.92513,1.29768 -30.65774,1.29768 -0.97326,0 -0.97326,-0.81105 0,-1.45989 0.72994,-4.21747 0.89217,-3.56862 1.05437,-4.21746 0.16222,-2.83869 1.13548,-7.86721 0.40552,-1.05436 1.37879,-1.05436 l 0.97325,0.0811 q 28.71122,1.70321 37.8761,1.70321 8.11051,0 26.52138,-1.21657 12.5713,-0.81106 10.46256,-0.81106 2.10874,0 2.35205,1.45989 -0.16221,-0.89215 -0.16221,7.8672 0,1.05437 0.24332,3.32531 0.24331,2.18984 0.24331,3.32532 z"
     id="path573"
     style="font-size:229.718px;font-family:'Berlin Sans FB';-inkscape-font-specification:'Berlin Sans FB';opacity:1;fill:#ff6100;fill-opacity:1;stroke-width:30.1227" /></g></svg>
