<?xml version="1.0" encoding="UTF-8" standalone="no"?>
<!-- Uploaded to: SVG Repo, www.svgrepo.com, Generator: SVG Repo Mixer Tools -->

<svg
   width="2510.1086"
   height="800.00012"
   viewBox="0 0 75.303259 24.000004"
   fill="none"
   version="1.1"
   id="svg1419"
   sodipodi:docname="menu.svg"
   inkscape:version="1.2.2 (732a01da63, 2022-12-09)"
   xmlns:inkscape="http://www.inkscape.org/namespaces/inkscape"
   xmlns:sodipodi="http://sodipodi.sourceforge.net/DTD/sodipodi-0.dtd"
   xmlns="http://www.w3.org/2000/svg"
   xmlns:svg="http://www.w3.org/2000/svg">
  <defs
     id="defs1423" />
  <sodipodi:namedview
     id="namedview1421"
     pagecolor="#505050"
     bordercolor="#eeeeee"
     borderopacity="1"
     inkscape:showpageshadow="0"
     inkscape:pageopacity="0"
     inkscape:pagecheckerboard="0"
     inkscape:deskcolor="#505050"
     showgrid="false"
     inkscape:zoom="0.344375"
     inkscape:cx="1594.1924"
     inkscape:cy="435.57169"
     inkscape:window-width="1366"
     inkscape:window-height="705"
     inkscape:window-x="-8"
     inkscape:window-y="-8"
     inkscape:window-maximized="1"
     inkscape:current-layer="svg1419" />
  <g
     id="g61345"
     transform="matrix(0.24000003,0,0,0.24000003,0.2049664,-0.32667925)">
    <rect
       style="fill:#28170b;fill-opacity:1;stroke-width:0.6045"
       id="rect4457"
       width="197.82214"
       height="43.194191"
       x="10.190315"
       y="28.544249"
       ry="16.333939" />
    <path
       id="path3278"
       style="fill:#a3aaaf;fill-opacity:1;stroke-width:0.507929"
       d="M 28.919891,26.724683 7.9537684,47.555217 a 3.4688008,3.4688008 0 0 0 -0.0158,4.905533 L 28.223981,72.879868 a 6.1058645,6.1058645 0 0 0 4.33145,1.80251 H 188.79092 a 3.9557095,3.9557095 0 0 0 3.04379,-1.42925 l 17.05424,-20.546357 a 4.271657,4.271657 0 0 0 0.0213,-5.430904 L 192.26651,26.904629 a 4.3206703,4.3206703 0 0 0 -3.34593,-1.587006 h -42.8767 v 5.193849 c 0,1.421911 -1.14474,2.566405 -2.56665,2.566405 -1.42191,0 -2.56665,-1.144494 -2.56665,-2.566405 V 25.317623 H 75.718188 v 5.193849 c 0,1.421911 -1.144737,2.566405 -2.56665,2.566405 -1.421912,0 -2.56665,-1.144494 -2.56665,-2.566405 V 25.317623 H 32.332471 a 4.8418599,4.8418599 0 0 0 -3.41258,1.40706 z" />
  </g>
  <rect
     style="fill:#cccccc;stroke-width:0.14508"
     id="rect2196"
     width="75.303261"
     height="24.000004"
     x="-80.738747"
     y="-18.990925" />
  <g
     id="g2369"
     transform="translate(62.420686,-9.5607989)"
     style="fill:#a3aaaf;fill-opacity:1;stroke:#28170b;stroke-opacity:1">
    <path
       d="m -5.4354839,23.560801 c 1.10457,0 2,-0.8954 2,-2 0,-1.1046 -0.89543,-2 -2,-2 -1.10457,0 -2,0.8954 -2,2"
       stroke="#1c274c"
       stroke-width="1.5"
       stroke-linecap="round"
       id="path1413"
       style="fill:#a3aaaf;fill-opacity:1;stroke:#28170b;stroke-opacity:1" />
    <circle
       cx="1.5645161"
       cy="21.560801"
       r="2"
       stroke="#1c274c"
       stroke-width="1.5"
       id="circle1415"
       style="fill:#a3aaaf;fill-opacity:1;stroke:#28170b;stroke-opacity:1" />
    <path
       d="m 10.564516,21.560801 c 0,1.1046 -0.8953999,2 -1.9999999,2 -1.1046,0 -2,-0.8954 -2,-2 0,-1.1046 0.8954,-2 2,-2"
       stroke="#1c274c"
       stroke-width="1.5"
       stroke-linecap="round"
       id="path1417"
       style="fill:#a3aaaf;fill-opacity:1;stroke:#28170b;stroke-opacity:1" />
  </g>
  <path
     id="path3104"
     style="font-size:7.65421px;font-family:'Berlin Sans FB';-inkscape-font-specification:'Berlin Sans FB';fill:#ff6100;stroke-width:1.3881"
     d="M 17.662266 9.3782813 C 17.490345 9.3782813 17.234951 9.4007569 16.896094 9.4456055 C 16.838787 9.4530802 16.810137 9.4804719 16.810137 9.5278125 C 16.810137 9.8143468 16.822606 10.245416 16.84752 10.820977 C 16.869216 11.274645 16.882316 11.638131 16.886836 11.912227 L 17.752852 11.912227 C 17.752269 11.815706 17.751973 11.728389 17.751973 11.650664 C 17.751973 11.610804 17.761922 11.58341 17.781856 11.568457 C 17.806776 11.585897 17.822956 11.603283 17.83043 11.620723 C 18.258986 12.59743 18.576713 13.332502 18.783516 13.82584 C 18.940487 14.189614 19.061321 14.472399 19.146035 14.674219 C 19.170951 14.716572 19.300477 14.737734 19.534688 14.737734 C 19.696643 14.737734 19.786369 14.721554 19.803809 14.68916 C 19.948321 14.350303 20.059205 14.067517 20.136445 13.840781 C 20.60985 12.662253 20.910077 11.93719 21.037149 11.665606 C 21.049602 11.638199 21.067046 11.624473 21.089473 11.624473 C 21.109406 11.624473 21.119356 11.648148 21.119356 11.695488 C 21.119356 12.011922 21.109406 12.486567 21.089473 13.119434 C 21.069539 13.752301 21.05959 14.226946 21.05959 14.543379 C 21.05959 14.625602 21.090695 14.666719 21.152988 14.666719 C 21.197837 14.666719 21.266346 14.663001 21.358535 14.655527 C 21.450727 14.648054 21.519294 14.644336 21.564141 14.644336 C 21.60899 14.644336 21.67624 14.648054 21.765938 14.655527 C 21.85813 14.663001 21.926638 14.666719 21.971484 14.666719 C 22.033771 14.666719 22.064942 14.635607 22.064942 14.57332 C 22.064942 14.301735 22.053735 13.891824 22.031309 13.343672 C 22.011375 12.795519 22.001367 12.384408 22.001367 12.110332 C 22.001367 11.823798 22.010119 11.394045 22.027559 10.820977 C 22.047492 10.245416 22.057442 9.8143468 22.057442 9.5278125 C 22.057442 9.4680139 22.02633 9.4381055 21.964043 9.4381055 C 21.879329 9.4381055 21.751003 9.4331308 21.579082 9.4231641 C 21.409653 9.4131975 21.282586 9.4082227 21.197871 9.4082227 C 21.153022 9.4082227 21.111905 9.4567729 21.074531 9.5539454 C 20.474055 11.143587 20.004386 12.342096 19.665527 13.149375 C 19.583302 13.348704 19.529718 13.44832 19.504805 13.44832 C 19.484872 13.44832 19.423855 13.326228 19.321699 13.082051 C 18.88816 12.040561 18.369882 10.857095 17.766914 9.5315625 C 17.722062 9.4294069 17.687179 9.3782813 17.662266 9.3782813 z M 16.883965 12.434883 C 16.877862 12.680472 16.865754 12.986911 16.84752 13.354922 C 16.846266 13.382629 16.845077 13.409706 16.843887 13.436719 L 17.773184 13.436719 C 17.771307 13.328952 17.769216 13.215782 17.766914 13.097051 C 17.763133 12.853169 17.760062 12.632502 17.757715 12.434883 L 16.883965 12.434883 z M 16.82332 13.959434 C 16.814576 14.219493 16.810137 14.431847 16.810137 14.595703 C 16.810137 14.643043 16.841307 14.666719 16.903594 14.666719 C 16.948443 14.666719 17.014435 14.663001 17.101641 14.655527 C 17.191341 14.648054 17.25865 14.644336 17.303496 14.644336 C 17.345853 14.644336 17.410587 14.648054 17.497793 14.655527 C 17.584996 14.663001 17.649789 14.666719 17.692149 14.666719 C 17.754442 14.666719 17.785606 14.625602 17.785606 14.543379 C 17.785606 14.386912 17.784105 14.19207 17.781152 13.959434 L 16.82332 13.959434 z " />
  <path
     d="m 26.396584,13.915516 q 0,0.0598 -0.0299,0.171921 -0.03364,0.142021 -0.04111,0.17192 -0.01121,0.134547 -0.05232,0.392428 -0.01869,0.06727 -0.09717,0.06727 -0.03737,0 -0.142022,-0.01495 -0.459701,-0.06727 -1.423952,-0.06727 -0.272831,0 -0.822229,0.01495 -0.549399,0.01495 -0.82223,0.01495 -0.123334,0 -0.123334,-0.108385 0,-0.41859 0.04485,-1.255769 0.04859,-0.840917 0.04859,-1.259506 0,-0.426065 -0.04485,-1.588398 -0.0075,-0.298993 -0.04111,-0.8932406 l -0.0037,-0.052324 q -0.0037,-0.08596 0.09717,-0.08596 0.261618,0 0.784855,0.01495 0.523237,0.01495 0.784856,0.01495 0.250406,0 0.747481,-0.01495 0.500813,-0.01495 0.751219,-0.01495 0.175658,0 0.190608,0.1083848 0.07849,0.4933378 0.07849,0.6129348 0,0.08596 -0.08222,0.08596 -0.317679,0 -0.964251,-0.03364 -0.642834,-0.03737 -0.967988,-0.03737 -0.306468,0 -0.388691,0.08222 -0.07849,0.08222 -0.07849,0.407378 v 0.556874 q 0,0.227981 0.01121,0.265355 0.03364,0.11586 0.194345,0.11586 0.04485,0 0.127072,-0.0037 0.08596,0 0.127072,0 0.732532,0 1.315567,-0.02616 0.227982,-0.0075 0.538187,-0.03737 0.07849,-0.0075 0.07849,0.06727 0,0.119597 -0.0299,0.366266 -0.02616,0.246669 -0.02616,0.370003 0,0.06727 -0.112122,0.06727 -0.04485,0 -0.332629,-0.02616 -0.209295,-0.02243 -0.941827,-0.02243 -0.616672,0 -0.781118,0.01495 -0.149496,0.01121 -0.171921,0.156971 0.0037,-0.02616 0.0037,0.28778 v 0.553137 q 0,0.38869 0.119597,0.485863 0.09343,0.07848 0.467176,0.07848 l 0.411115,-0.0037 q 0.261618,0 1.468801,-0.0897 l 0.05606,-0.0037 q 0.07475,-0.0075 0.07475,0.09343 z"
     id="path3106"
     style="font-size:7.65421px;font-family:'Berlin Sans FB';-inkscape-font-specification:'Berlin Sans FB';fill:#ff6100;stroke-width:1.3881" />
  <path
     d="m 31.67754,9.5053753 q 0,0.4298018 -0.0299,1.2968807 -0.0299,0.867078 -0.0299,1.300617 0,0.407378 0.0075,1.222132 0.0075,0.811018 0.0075,1.218395 0,0.123335 -0.09343,0.123335 -0.05606,0 -0.168183,-0.01121 -0.112122,-0.01121 -0.168183,-0.01121 -0.0598,0 -0.183133,0.01121 -0.123335,0.01121 -0.183133,0.01121 -0.06727,0 -0.160709,-0.123335 -0.80728,-1.087585 -2.448002,-3.244069 -0.254143,-0.328892 -0.295255,-0.366266 -0.03737,0 -0.03737,0.153234 0,0.57556 0.01869,1.730419 0.01869,1.151122 0.01869,1.726682 0,0.123335 -0.07475,0.123335 -0.06354,0 -0.194345,-0.01121 -0.130809,-0.01121 -0.194345,-0.01121 -0.06727,0 -0.20182,0.01121 -0.13081,0.01121 -0.198083,0.01121 -0.09344,0 -0.09344,-0.07475 0,-0.411115 0.03737,-1.237082 0.04111,-0.829705 0.04111,-1.244557 0,-0.452226 -0.03364,-1.629509 -0.0075,-0.306468 -0.03737,-0.9194026 l -0.0037,-0.048586 q -0.0037,-0.056061 0.0897,-0.059798 0.242932,-0.00374 0.381216,-0.01495 0.05232,-0.00374 0.198082,-0.029899 0.123335,-0.022424 0.194345,-0.022424 0.03364,0 0.11586,0.1083848 0.859604,1.1810208 2.631135,3.5131628 0.07849,0.09717 0.145759,0.168183 0.02616,-0.156971 0.02616,-0.717582 0,-0.485863 -0.03738,-1.457589 -0.03364,-0.971726 -0.03364,-1.4538511 0,-0.1233344 0.07475,-0.1233344 0.06727,0 0.20182,0.011212 0.138284,0.011212 0.205557,0.011212 0.07101,0 0.213033,-0.011212 0.142021,-0.011212 0.213032,-0.011212 0.07849,0 0.07849,0.082223 z"
     id="path3108"
     style="font-size:7.65421px;font-family:'Berlin Sans FB';-inkscape-font-specification:'Berlin Sans FB';fill:#ff6100;stroke-width:1.3881" />
  <path
     d="m 36.75294,9.5053753 q 0,0.4335392 -0.03737,1.3006177 -0.03364,0.863341 -0.03364,1.29688 0,0.142022 0.0037,0.426065 0.0037,0.280305 0.0037,0.418589 0,0.781118 -0.145759,1.083848 -0.224245,0.463439 -0.870816,0.627885 -0.396165,0.10091 -1.117485,0.10091 -1.308092,0 -1.71547,-0.433539 -0.313942,-0.336367 -0.313942,-1.345467 0,-0.123334 0.0037,-0.414852 0.0037,-0.295255 0.0037,-0.463439 0,-0.441014 -0.03737,-1.625772 0,-0.306467 -0.03364,-0.9156646 -0.0037,-0.044849 -0.0037,-0.059799 0,-0.078485 0.09717,-0.078485 0.153234,0 0.414853,0.00374 0.302729,0.00374 0.411114,0.00374 0.08596,0 0.08596,0.067273 0,0.5680856 -0.02616,1.7079956 -0.02242,1.139909 -0.02242,1.707995 0,0.642834 0.287781,0.870816 0.246669,0.20182 0.90819,0.20182 0.601722,0 0.855866,-0.164446 0.321417,-0.205558 0.321417,-0.769906 0,-0.590511 -0.01869,-1.771531 -0.01869,-1.184758 -0.01869,-1.7752687 0,-0.059799 0.108385,-0.074748 0.07849,-0.011212 0.224244,0 0.171921,0.01495 0.164446,0.01495 0.06727,0 0.20182,-0.011212 0.138284,-0.011212 0.205557,-0.011212 0.09344,0 0.09344,0.082223 z"
     id="path3110"
     style="font-size:7.65421px;font-family:'Berlin Sans FB';-inkscape-font-specification:'Berlin Sans FB';fill:#ff6100;stroke-width:1.3881" />
  <g
     id="g1775"
     transform="matrix(0.0483871,0,0,0.0483871,2.7197408,-20.084265)">
    <path
       id="path567"
       style="font-size:229.718px;font-family:'Berlin Sans FB';-inkscape-font-specification:'Berlin Sans FB';opacity:1;fill:#ff6100;fill-opacity:1;stroke-width:30.1227"
       d="m 150.89386,236.472 c -16.16696,0 -29.17155,6.00226 -39.0123,18.00581 -6.17083,7.43387 -10.26992,16.0789 -12.322294,25.92122 h 20.833984 c 1.32452,-4.66385 3.32479,-8.84423 6.0066,-12.53857 5.94771,-8.16458 14.27409,-12.247 24.97996,-12.247 5.62328,0 10.76051,1.32491 15.41053,3.97435 2.81165,1.6221 5.8119,4.05478 9.00203,7.29898 2.59536,2.64943 4.24509,3.97435 4.94801,3.97435 0.59476,0 2.32483,-2.24379 5.19054,-6.73161 2.86571,-4.54188 4.29832,-7.27291 4.29832,-8.19209 0,-0.75699 -0.43252,-1.70322 -1.29764,-2.8387 C 179.95597,242.01439 167.27707,236.472 150.89386,236.472 Z m -52.689145,53.90184 c -0.123739,1.84168 -0.191759,3.71606 -0.191759,5.6301 0,1.77531 0.06269,3.51202 0.16724,5.22382 H 118.7086 c -0.16901,-1.87304 -0.25743,-3.80231 -0.25743,-5.79208 0,-1.73547 0.0724,-3.41915 0.20227,-5.06184 z m 1.245099,20.82874 c 1.988856,9.98085 6.046566,18.70571 12.189206,26.16464 9.73261,11.84132 22.70896,17.76238 38.92999,17.76238 15.57216,0 28.62973,-6.10995 39.17339,-18.32977 1.02733,-1.18955 1.54105,-2.1093 1.54105,-2.75814 0,-0.43256 -1.6215,-2.78404 -4.8657,-7.05558 -3.24421,-4.3256 -5.02899,-6.48905 -5.35342,-6.48905 -0.27034,0 -1.81151,1.3249 -4.62314,3.97434 -3.35235,3.19013 -6.65006,5.65018 -9.89427,7.38042 -4.92037,2.64943 -10.03023,3.97434 -15.32909,3.97434 -10.65181,0 -18.9517,-4.19011 -24.8994,-12.57096 -2.52717,-3.59537 -4.43884,-7.61617 -5.74831,-12.05262 z" />
    <path
       d="m 300.61355,351.80393 q 0,0.97326 -1.94652,0.97326 -1.541,0 -4.54189,-0.24331 -2.91979,-0.24332 -4.46079,-0.24332 -1.54099,0 -4.62299,0.24332 -3.08198,0.24331 -4.62299,0.24331 -2.27094,0 -5.83957,-12.24687 -3.48752,-12.32798 -7.13725,-12.49019 -3.00089,-0.16221 -15.65329,-0.16221 h -12.81461 q -13.38234,0 -15.24777,0.16221 -2.91978,0.24331 -6.24509,12.49019 -3.2442,12.24687 -5.02852,12.24687 h -18.24866 q -1.6221,0 -1.6221,-1.13546 0,-0.81106 1.13547,-3.64974 l 19.87077,-54.34043 q 2.51425,-6.56953 15.24776,-37.8761 2.27094,-5.19073 6.16399,-15.65329 0.97326,-3.082 2.10873,-3.082 1.541,0 4.54189,0.40553 3.00089,0.40553 4.54189,0.40553 1.45989,0 4.37967,-0.40553 3.00089,-0.48663 4.37968,-0.48663 0.72995,0 2.02763,3.00088 1.94652,4.5419 19.22192,48.90641 24.41264,62.36983 24.41264,62.93757 z M 262.81856,307.0339 q 0,-2.35205 -7.29946,-21.08733 -7.05614,-18.16755 -9.97593,-23.84491 -16.78877,42.82351 -16.78877,44.85113 0,2.75758 6.164,3.24422 0.32442,0.0811 7.9483,0.0811 h 8.35383 q 11.59803,0 11.59803,-3.2442 z"
       id="path569"
       style="font-size:229.718px;font-family:'Berlin Sans FB';-inkscape-font-specification:'Berlin Sans FB';opacity:1;fill:#ff6100;fill-opacity:1;stroke-width:30.1227" />
    <path
       d="m 397.45308,352.12835 q 0,0.64884 -1.29768,0.64884 -1.54099,0 -4.70409,-0.24331 -3.1631,-0.24332 -4.70409,-0.24332 -1.70322,0 -5.10963,0.24332 -3.32531,0.24331 -5.02852,0.24331 -1.86541,0 -2.83868,-2.02763 -2.59536,-5.51514 -14.76113,-34.14526 -1.21658,-2.91978 -5.92068,-3.56862 -1.05436,-0.0811 -7.38057,-0.0811 -11.1925,0 -13.30123,0.32442 -1.70321,0.24331 -1.70321,4.13636 0,5.67736 0.48663,17.03208 0.56773,11.27361 0.56773,16.86986 0,1.70322 -1.6221,1.70322 -1.6221,0 -4.94742,-0.32443 -3.2442,-0.40553 -4.9474,-0.40553 -1.37879,0 -4.21747,0.24332 -2.83868,0.24332 -4.21747,0.24332 -2.02763,0 -2.02763,-1.86542 0,-9.00267 0.81105,-27.00801 0.89216,-18.08644 0.89216,-27.08912 0,-25.62921 -1.86542,-54.66485 l -0.0811,-1.29768 q -0.0811,-1.6221 3.40642,-1.6221 6.97504,0 20.84401,-0.32442 13.95009,-0.40554 20.84403,-0.40554 18.00533,0 28.87342,8.59715 12.00356,9.4893 12.00356,26.92691 0,12.00356 -3.2442,18.89749 -3.40643,7.29946 -12.65241,13.86897 -1.541,1.05437 -1.541,2.02764 0,1.13547 9.65151,21.57396 9.73262,20.43849 9.73262,21.73617 z M 375.23028,278.566 q 0,-14.68003 -8.43493,-19.62744 -6.24509,-3.64974 -22.46613,-3.64974 -13.13902,0 -13.38233,2.10874 -0.56774,4.37968 -0.56774,23.43938 v 15.49108 q 0.24331,0.16221 1.05436,0.32442 1.4599,0.16221 4.7852,0.40552 7.705,0.40554 16.62656,0.40554 22.38501,0 22.38501,-18.8975 z"
       id="path571"
       style="font-size:229.718px;font-family:'Berlin Sans FB';-inkscape-font-specification:'Berlin Sans FB';opacity:1;fill:#ff6100;fill-opacity:1;stroke-width:30.1227" />
    <path
       d="m 483.91114,254.31557 q 0,2.10873 -1.4599,2.10873 -2.27094,0 -28.71121,-0.97326 -0.72994,24.73706 -0.72994,39.6604 0,9.3271 0.64883,27.98128 0.72995,18.65418 0.72995,27.98126 0,1.70321 -2.35205,1.70321 -1.45989,0 -4.46078,-0.24331 -3.00089,-0.24332 -4.54189,-0.24332 -1.45989,0 -4.46078,0.24332 -3.00089,0.24331 -4.46078,0.24331 -2.02763,0 -2.02763,-2.02763 0,-9.24599 0.72994,-27.73795 0.81106,-18.57307 0.81106,-27.90017 0,-14.4367 -0.89216,-39.6604 -20.92513,1.29768 -30.65774,1.29768 -0.97326,0 -0.97326,-0.81105 0,-1.45989 0.72994,-4.21747 0.89217,-3.56862 1.05437,-4.21746 0.16222,-2.83869 1.13548,-7.86721 0.40552,-1.05436 1.37879,-1.05436 l 0.97325,0.0811 q 28.71122,1.70321 37.8761,1.70321 8.11051,0 26.52138,-1.21657 12.5713,-0.81106 10.46256,-0.81106 2.10874,0 2.35205,1.45989 -0.16221,-0.89215 -0.16221,7.8672 0,1.05437 0.24332,3.32531 0.24331,2.18984 0.24331,3.32532 z"
       id="path573"
       style="font-size:229.718px;font-family:'Berlin Sans FB';-inkscape-font-specification:'Berlin Sans FB';opacity:1;fill:#ff6100;fill-opacity:1;stroke-width:30.1227" />
  </g>
</svg>
