<?xml version="1.0" encoding="UTF-8" standalone="no"?>
<!-- Generator: Adobe Illustrator 19.0.0, SVG Export Plug-In . SVG Version: 6.00 Build 0)  -->

<svg
   version="1.1"
   id="Capa_1"
   x="0px"
   y="0px"
   viewBox="0 0 480 480"
   style="enable-background:new 0 0 480 480;"
   xml:space="preserve"
   sodipodi:docname="bed-2.svg"
   inkscape:version="1.2.2 (732a01da63, 2022-12-09)"
   xmlns:inkscape="http://www.inkscape.org/namespaces/inkscape"
   xmlns:sodipodi="http://sodipodi.sourceforge.net/DTD/sodipodi-0.dtd"
   xmlns="http://www.w3.org/2000/svg"
   xmlns:svg="http://www.w3.org/2000/svg"><defs
   id="defs240" /><sodipodi:namedview
   id="namedview238"
   pagecolor="#505050"
   bordercolor="#eeeeee"
   borderopacity="1"
   inkscape:showpageshadow="0"
   inkscape:pageopacity="0"
   inkscape:pagecheckerboard="0"
   inkscape:deskcolor="#505050"
   showgrid="false"
   inkscape:zoom="0.57395833"
   inkscape:cx="5.2268603"
   inkscape:cy="228.23957"
   inkscape:window-width="1366"
   inkscape:window-height="705"
   inkscape:window-x="-8"
   inkscape:window-y="-8"
   inkscape:window-maximized="1"
   inkscape:current-layer="Capa_1" />
<g
   id="g187"
   style="fill:#ff4e00;fill-opacity:0.75294119">
	<g
   id="g185"
   style="fill:#ff4e00;fill-opacity:0.75294119">
		<path
   fill="#E994A0"
   d="M479.744,398.008L408,118.992V8c0-4.418-3.582-8-8-8H80c-4.418,0-8,3.582-8,8v110.992L0.256,398.008    C0.087,398.659,0.001,399.328,0,400v72c0,4.418,3.582,8,8,8h464c4.418,0,8-3.582,8-8v-72    C479.999,399.328,479.913,398.659,479.744,398.008z M88,16h304v96h-16V80c0-4.418-3.582-8-8-8H256c-4.418,0-8,3.582-8,8v32h-16V80    c0-4.418-3.582-8-8-8H112c-4.418,0-8,3.582-8,8v32H88V16z M360,88v56h-96V88H360z M216,88v56h-96V88H216z M86.2,128H104v24    c0,4.418,3.582,8,8,8h112c4.418,0,8-3.582,8-8v-24h16v24c0,4.418,3.582,8,8,8h112c4.418,0,8-3.582,8-8v-24h17.8l16.456,64H69.744    L86.2,128z M65.6,208h348.8l4.112,16H61.52L65.6,208z M464,464H16v-62.992L57.4,240h365.2L464,401.008V464z"
   id="path183"
   style="fill:#ff4e00;fill-opacity:0.75294119" />
	</g>
</g>
<g
   id="g193"
   style="fill:#c87137">
	<g
   id="g191"
   style="fill:#c87137">
		<rect
   fill="#E994A0"
   x="264"
   y="392"
   width="184"
   height="16"
   id="rect189"
   style="fill:#c87137" />
	</g>
</g>
<g
   id="g199"
   style="fill:#c87137">
	<g
   id="g197"
   style="fill:#c87137">
		<rect
   fill="#E994A0"
   x="232"
   y="392"
   width="16"
   height="16"
   id="rect195"
   style="fill:#c87137" />
	</g>
</g>
<g
   id="g205"
   style="fill:#c87137">
	<g
   id="g203"
   style="fill:#c87137">
		<rect
   fill="#E994A0"
   x="32"
   y="392"
   width="184"
   height="16"
   id="rect201"
   style="fill:#c87137" />
	</g>
</g>
<g
   id="g207">
</g>
<g
   id="g209">
</g>
<g
   id="g211">
</g>
<g
   id="g213">
</g>
<g
   id="g215">
</g>
<g
   id="g217">
</g>
<g
   id="g219">
</g>
<g
   id="g221">
</g>
<g
   id="g223">
</g>
<g
   id="g225">
</g>
<g
   id="g227">
</g>
<g
   id="g229">
</g>
<g
   id="g231">
</g>
<g
   id="g233">
</g>
<g
   id="g235">
</g>
</svg>
