<?xml version="1.0" encoding="UTF-8" standalone="no"?>
<!-- Created with Inkscape (http://www.inkscape.org/) -->

<svg
   width="63.453426mm"
   height="61.184155mm"
   viewBox="0 0 63.453425 61.184154"
   version="1.1"
   id="svg1"
   xml:space="preserve"
   inkscape:version="1.3 (0e150ed6c4, 2023-07-21)"
   sodipodi:docname="Google Icon.svg"
   xmlns:inkscape="http://www.inkscape.org/namespaces/inkscape"
   xmlns:sodipodi="http://sodipodi.sourceforge.net/DTD/sodipodi-0.dtd"
   xmlns="http://www.w3.org/2000/svg"
   xmlns:svg="http://www.w3.org/2000/svg"><sodipodi:namedview
     id="namedview1"
     pagecolor="#ffffff"
     bordercolor="#eeeeee"
     borderopacity="1"
     inkscape:showpageshadow="0"
     inkscape:pageopacity="0"
     inkscape:pagecheckerboard="0"
     inkscape:deskcolor="#d1d1d1"
     inkscape:document-units="mm"
     inkscape:zoom="0.64126689"
     inkscape:cx="68.614177"
     inkscape:cy="130.211"
     inkscape:window-width="1366"
     inkscape:window-height="705"
     inkscape:window-x="-8"
     inkscape:window-y="-8"
     inkscape:window-maximized="1"
     inkscape:current-layer="layer1" /><defs
     id="defs1" /><g
     inkscape:label="Layer 1"
     inkscape:groupmode="layer"
     id="layer1"
     transform="translate(-77.1983,-99.684715)"><g
       id="g14"><text
         xml:space="preserve"
         style="font-weight:bold;font-size:49.4094px;font-family:Arial;-inkscape-font-specification:'Arial, Bold';fill:#000000;fill-opacity:1;stroke-width:1.47393;stroke-linecap:square;stroke-linejoin:round;paint-order:markers fill stroke"
         x="35.732693"
         y="-20.798208"
         id="text8"><tspan
           sodipodi:role="line"
           id="tspan8"
           x="35.732693"
           y="-20.798208"
           style="fill:#000000;fill-opacity:1;stroke-width:1.47393">f</tspan></text><circle
         style="fill:none;fill-opacity:1;stroke:#000000;stroke-width:2.802;stroke-linecap:square;stroke-linejoin:round;stroke-dasharray:none;stroke-opacity:1;paint-order:markers fill stroke"
         id="path12"
         cx="44.972828"
         cy="-38.783905"
         r="27.643847" /></g><g
       id="g1"
       transform="translate(39.180911,-72.158617)"><path
         id="path8"
         style="fill:#f9f9f9;stroke:#f9f9f9;stroke-width:2.02644"
         d="m 69.095159,185.82658 c -3.216469,0.0345 -6.480482,1.37401 -8.745729,3.54178 -3.013432,2.66741 -5.41921,6.32769 -5.748495,10.35337 -0.390534,3.84008 -0.109924,7.98371 2.019398,11.31806 2.461027,4.11186 6.655,7.4782 11.540415,7.94581 5.130168,0.50759 10.289103,-2.02131 13.352157,-6.14616 2.459896,-3.25291 3.673346,-7.38969 3.510373,-11.45311 -0.08485,-0.35973 -0.03704,-1.10861 -0.313028,-1.37287 -4.512607,0 -9.025215,0 -13.537822,0 0,1.58131 0,3.16262 0,4.74393 2.698546,0.0474 5.441591,-0.1816 8.102424,0.34322 0.893012,0.38905 0.743291,1.58705 0.298293,2.27134 -1.065867,2.09619 -2.723379,3.89823 -4.68345,5.18739 -3.24516,2.00355 -7.613588,1.88949 -10.773541,-0.23699 -3.637477,-2.32526 -5.60203,-6.81442 -5.165041,-11.07083 0.255014,-3.86604 2.414656,-7.7517 6.021112,-9.40563 2.749967,-1.2907 6.030978,-1.33509 8.868218,-0.31317 0.545987,0.37528 1.150603,0.0944 1.578165,-0.30812 1.072769,-0.76562 2.081454,-1.61685 3.02965,-2.53189 -2.612239,-2.11173 -6.084591,-2.95605 -9.353099,-2.86613 z" /><circle
         style="fill:none;fill-opacity:1;stroke:#f9f9f9;stroke-width:2.802;stroke-linecap:square;stroke-linejoin:round;stroke-dasharray:none;stroke-opacity:1;paint-order:markers fill stroke"
         id="circle12"
         cx="69.744102"
         cy="202.43541"
         r="27.643847" /></g><g
       id="g16"
       transform="translate(35.483146,-22.280115)"><path
         style="fill:#000000;stroke-width:1.86646"
         d="m -61.924745,0.80884748 c -6.864868,-1.554987 -11.04776,-6.06615218 -12.392677,-13.36521548 -0.47675,-2.58742 -0.476209,-3.972168 0.0018,-6.570564 0.759053,-4.119582 2.343026,-6.853445 5.802869,-10.01555 4.557565,-4.165365 11.784265,-5.607824 17.692141,-3.531365 2.625105,0.922648 2.686064,0.922648 3.521044,0 0.467344,-0.516394 1.259713,-0.938906 1.76084,-0.938906 0.837015,0 0.911132,0.502079 0.911132,6.172933 0,4.884607 -0.140545,6.172933 -0.673663,6.172933 -0.370511,0 -1.041112,-0.962143 -1.49022,-2.138126 -1.728717,-4.526583 -4.977912,-7.416035 -9.021136,-8.022355 -4.172832,-0.62575 -8.069855,1.813866 -10.110982,6.329678 -1.025994,2.269917 -1.1735,3.341024 -1.1735,8.52225 0,5.253252 0.131399,6.17829 1.15687,8.1482664 1.478817,2.840718 2.85175,4.3214206 5.016081,5.4098291 5.573313,2.80271698 11.876058,0.912607 14.900361,-4.4683859 1.02047,-1.8156761 1.819596,-2.3287667 2.526313,-1.6220489 0.168915,0.1689149 -0.221269,1.3496762 -0.867009,2.6239664 -1.348127,2.6604183 -4.529979,5.72783738 -7.021277,6.76876338 -2.411805,1.00772102 -7.325529,1.25196602 -10.539764,0.523897 z"
         id="path6" /><circle
         style="fill:none;fill-opacity:1;stroke:#000000;stroke-width:2.802;stroke-linecap:square;stroke-linejoin:round;stroke-dasharray:none;stroke-opacity:1;paint-order:markers fill stroke"
         id="circle13"
         cx="-59.066319"
         cy="-16.192471"
         r="27.643847" /></g><g
       id="g17"
       transform="translate(80.868565,-5.7763238)"><path
         style="fill:#000000;stroke-width:1.72929"
         d="m -88.27201,118.32813 c -1.132418,-0.31305 -2.882521,-0.9638 -3.889115,-1.44608 l -1.830172,-0.87691 2.806759,-0.26868 c 2.669592,-0.25556 7.030415,-2.18447 7.030415,-3.10975 0,-0.20122 -0.804482,-0.60686 -1.787736,-0.90146 -1.667954,-0.49973 -4.617864,-3.18306 -4.617864,-4.20057 0,-0.24289 0.480418,-0.44162 1.067599,-0.44162 1.811818,0 1.759924,-0.56531 -0.156812,-1.70831 -1.877113,-1.11937 -3.656042,-3.84917 -3.656042,-5.610253 0,-0.81953 0.130077,-0.879797 0.950839,-0.440539 0.522962,0.27987 1.279149,0.382884 1.680418,0.228908 0.626683,-0.240477 0.594753,-0.37441 -0.226389,-0.949557 -1.438228,-1.007367 -2.568256,-4.395285 -2.289861,-6.865188 0.129368,-1.147803 0.339607,-2.191295 0.467186,-2.318865 0.12757,-0.127622 1.212216,0.694019 2.410307,1.825756 2.718382,2.567867 6.405145,4.532367 10.30548,5.491279 1.651792,0.406091 3.11978,0.738358 3.262193,0.738358 0.142407,0 0.346836,-1.215228 0.454273,-2.700523 0.442843,-6.122263 6.380565,-9.411315 11.148732,-6.175543 1.799247,1.220988 2.331278,1.207897 5.657072,-0.139381 0.669554,-0.271239 -1.111433,2.560172 -1.985715,3.156883 -0.872878,0.595743 0.06182,0.852975 1.337334,0.368029 1.924304,-0.731614 1.951646,-0.168433 0.08465,1.743476 -1.487811,1.523651 -1.686057,1.995542 -1.686057,4.013354 0,6.843746 -4.561658,14.944256 -10.415971,18.496486 -4.217052,2.55881 -11.167751,3.46019 -16.121523,2.09069 z"
         id="path11" /><circle
         style="fill:none;fill-opacity:1;stroke:#000000;stroke-width:2.802;stroke-linecap:square;stroke-linejoin:round;stroke-dasharray:none;stroke-opacity:1;paint-order:markers fill stroke"
         id="circle14"
         cx="-76.330017"
         cy="103.14868"
         r="27.643847" /></g></g></svg>
