<?xml version="1.0" encoding="UTF-8" standalone="no"?>
<!-- Created with Inkscape (http://www.inkscape.org/) -->

<svg
   width="63.453426mm"
   height="61.184155mm"
   viewBox="0 0 63.453425 61.184154"
   version="1.1"
   id="svg1"
   xml:space="preserve"
   inkscape:version="1.3 (0e150ed6c4, 2023-07-21)"
   sodipodi:docname="Twiiter Icon.svg"
   xmlns:inkscape="http://www.inkscape.org/namespaces/inkscape"
   xmlns:sodipodi="http://sodipodi.sourceforge.net/DTD/sodipodi-0.dtd"
   xmlns="http://www.w3.org/2000/svg"
   xmlns:svg="http://www.w3.org/2000/svg"><sodipodi:namedview
     id="namedview1"
     pagecolor="#ffffff"
     bordercolor="#eeeeee"
     borderopacity="1"
     inkscape:showpageshadow="0"
     inkscape:pageopacity="0"
     inkscape:pagecheckerboard="0"
     inkscape:deskcolor="#d1d1d1"
     inkscape:document-units="mm"
     inkscape:zoom="0.90688833"
     inkscape:cx="140.03929"
     inkscape:cy="250.85779"
     inkscape:window-width="1366"
     inkscape:window-height="705"
     inkscape:window-x="-8"
     inkscape:window-y="-8"
     inkscape:window-maximized="1"
     inkscape:current-layer="layer1" /><defs
     id="defs1" /><g
     inkscape:label="Layer 1"
     inkscape:groupmode="layer"
     id="layer1"
     transform="translate(-77.1983,-99.684715)"><g
       id="g14"
       transform="translate(-154.31043,118.82728)"><text
         xml:space="preserve"
         style="font-weight:bold;font-size:49.4094px;font-family:Arial;-inkscape-font-specification:'Arial, Bold';fill:#000000;fill-opacity:1;stroke-width:1.47393;stroke-linecap:square;stroke-linejoin:round;paint-order:markers fill stroke"
         x="35.732693"
         y="-20.798208"
         id="text8"><tspan
           sodipodi:role="line"
           id="tspan8"
           x="35.732693"
           y="-20.798208"
           style="fill:#000000;fill-opacity:1;stroke-width:1.47393">f</tspan></text><circle
         style="fill:none;fill-opacity:1;stroke:#000000;stroke-width:2.802;stroke-linecap:square;stroke-linejoin:round;stroke-dasharray:none;stroke-opacity:1;paint-order:markers fill stroke"
         id="path12"
         cx="44.972828"
         cy="-38.783905"
         r="27.643847" /></g><g
       id="g15"
       transform="translate(154.7394,1.0888897)"><path
         id="path8"
         style="fill:#000000;stroke-width:2.02644"
         d="m -15.090543,-50.028709 c -3.216469,0.03449 -6.480482,1.374009 -8.745729,3.541779 -3.013432,2.667411 -5.41921,6.327694 -5.748495,10.353369 -0.390534,3.840083 -0.109924,7.98371 2.019398,11.318061 2.461027,4.111861 6.655,7.478198 11.540415,7.945812 5.130168,0.507589 10.2891027,-2.021311 13.3521567,-6.146159 2.4598959,-3.25291 3.6733464,-7.389688 3.5103732,-11.453117 -0.084845,-0.359725 -0.037039,-1.108605 -0.3130278,-1.372867 -4.5126074,0 -9.0252154,0 -13.5378221,0 0,1.581312 0,3.162623 0,4.743934 2.698546,0.04742 5.4415907,-0.181607 8.1024237,0.343217 0.893012,0.389053 0.743291,1.587053 0.298293,2.271338 -1.065867,2.096197 -2.723379,3.898231 -4.68345,5.187394 -3.2451597,2.003553 -7.6135877,1.889488 -10.7735407,-0.236992 -3.637477,-2.325262 -5.60203,-6.81442 -5.165041,-11.070828 0.255014,-3.86604 2.414656,-7.751698 6.021112,-9.40563 2.749967,-1.290703 6.030978,-1.335093 8.868218,-0.313168 0.5459867,0.375272 1.1506027,0.09444 1.5781647,-0.308121 1.072769,-0.76562 2.081454,-1.616855 3.02965,-2.531895 -2.612239,-2.11173 -6.0845907,-2.956045 -9.3530987,-2.866127 z" /><circle
         style="fill:none;fill-opacity:1;stroke:#000000;stroke-width:2.802;stroke-linecap:square;stroke-linejoin:round;stroke-dasharray:none;stroke-opacity:1;paint-order:markers fill stroke"
         id="circle12"
         cx="-14.440812"
         cy="-33.420174"
         r="27.643847" /></g><g
       id="g16"
       transform="translate(35.483146,-22.280115)"><g
         id="g18"
         transform="translate(132.0303,76.742622)"><path
           style="fill:#000000;stroke-width:1.86646"
           d="m -61.924745,0.80884748 c -6.864868,-1.554987 -11.04776,-6.06615218 -12.392677,-13.36521548 -0.47675,-2.58742 -0.476209,-3.972168 0.0018,-6.570564 0.759053,-4.119582 2.343026,-6.853445 5.802869,-10.01555 4.557565,-4.165365 11.784265,-5.607824 17.692141,-3.531365 2.625105,0.922648 2.686064,0.922648 3.521044,0 0.467344,-0.516394 1.259713,-0.938906 1.76084,-0.938906 0.837015,0 0.911132,0.502079 0.911132,6.172933 0,4.884607 -0.140545,6.172933 -0.673663,6.172933 -0.370511,0 -1.041112,-0.962143 -1.49022,-2.138126 -1.728717,-4.526583 -4.977912,-7.416035 -9.021136,-8.022355 -4.172832,-0.62575 -8.069855,1.813866 -10.110982,6.329678 -1.025994,2.269917 -1.1735,3.341024 -1.1735,8.52225 0,5.253252 0.131399,6.17829 1.15687,8.1482664 1.478817,2.840718 2.85175,4.3214206 5.016081,5.4098291 5.573313,2.80271698 11.876058,0.912607 14.900361,-4.4683859 1.02047,-1.8156761 1.819596,-2.3287667 2.526313,-1.6220489 0.168915,0.1689149 -0.221269,1.3496762 -0.867009,2.6239664 -1.348127,2.6604183 -4.529979,5.72783738 -7.021277,6.76876338 -2.411805,1.00772102 -7.325529,1.25196602 -10.539764,0.523897 z"
           id="path6" /><circle
           style="fill:none;fill-opacity:1;stroke:#000000;stroke-width:2.802;stroke-linecap:square;stroke-linejoin:round;stroke-dasharray:none;stroke-opacity:1;paint-order:markers fill stroke"
           id="circle13"
           cx="-59.066319"
           cy="-16.192471"
           r="27.643847" /></g></g><g
       id="g1"
       transform="translate(65.643418,-30.050098)"><path
         style="fill:#f9f9f9;stroke:#f9f9f9;stroke-width:1.72929"
         d="m 30.967865,176.09139 c -1.132418,-0.31305 -2.882521,-0.9638 -3.889115,-1.44608 l -1.830172,-0.87691 2.806759,-0.26868 c 2.669592,-0.25556 7.030418,-2.18447 7.030418,-3.10975 0,-0.20122 -0.80448,-0.60686 -1.787739,-0.90146 -1.667954,-0.49973 -4.617864,-3.18306 -4.617864,-4.20057 0,-0.24289 0.480418,-0.44162 1.067599,-0.44162 1.811818,0 1.759924,-0.56531 -0.156812,-1.70831 -1.877113,-1.11937 -3.656042,-3.84917 -3.656042,-5.61025 0,-0.81953 0.130077,-0.8798 0.950839,-0.44054 0.522962,0.27987 1.279149,0.38289 1.680418,0.22891 0.626683,-0.24048 0.594753,-0.37441 -0.226389,-0.94956 -1.438228,-1.00736 -2.568256,-4.39528 -2.289861,-6.86518 0.129368,-1.14781 0.339607,-2.1913 0.467186,-2.31887 0.12757,-0.12762 1.212216,0.69402 2.410307,1.82576 2.718382,2.56786 6.405148,4.53236 10.305478,5.49128 1.65179,0.40609 3.11978,0.73835 3.2622,0.73835 0.1424,0 0.34683,-1.21522 0.45427,-2.70052 0.44284,-6.12226 6.38056,-9.41131 11.14873,-6.17554 1.79925,1.22099 2.33128,1.20789 5.65707,-0.13938 0.66956,-0.27124 -5.925281,4.71182 -6.799561,5.30853 -0.87288,0.59574 4.875651,-1.29868 6.151181,-1.78362 1.92431,-0.73162 1.95165,-0.16843 0.0846,1.74347 -1.48781,1.52366 -1.68606,1.99555 -1.68606,4.01336 0,6.84374 -4.56165,14.94425 -10.41597,18.49648 -4.21705,2.55881 -11.16775,3.46019 -16.12152,2.09069 z"
         id="path11"
         sodipodi:nodetypes="cccssssssssssscccsccscccsccc" /><circle
         style="fill:none;fill-opacity:1;stroke:#f9f9f9;stroke-width:2.802;stroke-linecap:square;stroke-linejoin:round;stroke-dasharray:none;stroke-opacity:1;paint-order:markers fill stroke"
         id="circle14"
         cx="42.909855"
         cy="160.91194"
         r="27.643847" /></g><rect
       style="fill:#000000;stroke:#f9f9f9;stroke-width:2.80199;stroke-linecap:square;stroke-linejoin:round;paint-order:markers fill stroke;fill-opacity:1"
       id="rect1"
       width="23.105303"
       height="22.692709"
       x="-4.9080486"
       y="59.250435" /></g></svg>
