<?xml version="1.0" encoding="UTF-8" standalone="no"?>
<!-- Created with Inkscape (http://www.inkscape.org/) -->

<svg
   version="1.1"
   id="svg1"
   width="600"
   height="400"
   viewBox="0 0 600 400"
   sodipodi:docname="bigscreen-cartbg.svg"
   inkscape:version="1.2.2 (732a01da63, 2022-12-09)"
   xmlns:inkscape="http://www.inkscape.org/namespaces/inkscape"
   xmlns:sodipodi="http://sodipodi.sourceforge.net/DTD/sodipodi-0.dtd"
   xmlns="http://www.w3.org/2000/svg"
   xmlns:svg="http://www.w3.org/2000/svg">
  <defs
     id="defs1" />
  <sodipodi:namedview
     id="namedview1"
     pagecolor="#ffffff"
     bordercolor="#cccccc"
     borderopacity="1"
     inkscape:showpageshadow="0"
     inkscape:pageopacity="1"
     inkscape:pagecheckerboard="0"
     inkscape:deskcolor="#d1d1d1"
     showgrid="false"
     inkscape:zoom="0.68875"
     inkscape:cx="15.245009"
     inkscape:cy="182.94011"
     inkscape:window-width="1366"
     inkscape:window-height="705"
     inkscape:window-x="-8"
     inkscape:window-y="-8"
     inkscape:window-maximized="1"
     inkscape:current-layer="g1" />
  <g
     inkscape:groupmode="layer"
     inkscape:label="Image"
     id="g1">
    <rect
       style="opacity:0.311031;fill:#80c1be;fill-opacity:1;stroke:none;stroke-width:1.4683"
       id="rect540"
       width="242.89612"
       height="242.89612"
       x="178.55194"
       y="78.551941"
       ry="121.44806" />
    <g
       id="g538"
       transform="matrix(0.31266576,0,0,0.31266576,220.5829,120.5829)"
       style="opacity:0.311031">
      <path
         style="fill:#f8b64c"
         d="m 39.65,425.4 v 61.4 c 0,11.7 9.5,21.2 21.2,21.2 h 386.3 c 11.7,0 21.2,-9.5 21.2,-21.2 v -61.4 z"
         id="path485" />
      <rect
         x="39.849998"
         y="174.5"
         style="fill:#ffd15c"
         width="428.5"
         height="250.89999"
         id="rect487" />
      <rect
         x="65.050003"
         y="130.5"
         style="fill:#40596b"
         width="378"
         height="43.900002"
         id="rect489" />
      <polygon
         style="fill:#334a5e"
         points="90.35,148.5 90.35,174.5 39.85,174.5 "
         id="polygon491" />
      <polygon
         style="fill:#f8b64c"
         points="65.05,130.5 65.05,161.5 90.35,148.5 "
         id="polygon493" />
      <polygon
         style="fill:#334a5e"
         points="417.75,148.5 417.75,174.5 468.25,174.5 "
         id="polygon495" />
      <polygon
         style="fill:#f8b64c"
         points="443.05,130.5 443.05,161.5 417.75,148.5 "
         id="polygon497" />
      <g
         id="g503">
	<circle
   style="fill:#40596b"
   cx="167.25"
   cy="227.5"
   r="16.700001"
   id="circle499" />

	<circle
   style="fill:#40596b"
   cx="340.85001"
   cy="227.5"
   r="16.700001"
   id="circle501" />

</g>
      <path
         style="fill:#f8b64c"
         d="m 334.05,299.2 v 9.7 c 0,44.1 -35.9,80 -80,80 -44.1,0 -80,-35.9 -80,-80 v -9.7 h -13.5 v 9.7 c 0,51.6 41.9,93.5 93.5,93.5 51.6,0 93.5,-41.9 93.5,-93.5 v -9.7 z"
         id="path505" />
      <path
         style="fill:#f2f2f2"
         d="m 340.85,220.7 c -3.7,0 -6.7,3 -6.7,6.7 v 74.7 c 0,44.1 -35.9,80 -80,80 -44.1,0 -80,-35.9 -80,-80 v -74.7 c 0,-3.7 -3,-6.7 -6.7,-6.7 -3.7,0 -6.7,3 -6.7,6.7 v 74.7 c 0,51.6 41.9,93.5 93.5,93.5 51.6,0 93.5,-41.9 93.5,-93.5 v -74.7 c -0.2,-3.7 -3.2,-6.7 -6.9,-6.7 z"
         id="path507" />
      <path
         style="fill:#84dbff"
         d="m 409.95,131.1 c -0.3,-1.6 -0.6,-3.2 -0.9,-4.8 -13,-63.7 -64.3,-113.4 -128.8,-124.1 -4.7,-0.8 -9.5,-1.4 -14.3,-1.7 -3.9,-0.4 -7.9,-0.5 -11.9,-0.5 -9.9,0 -19.6,0.9 -29,2.7 -0.5,0.1 -0.9,0.2 -1.4,0.3 -39.3,7.7 -73.4,29.8 -96.3,60.7 -1.8,2.3 -3.4,4.7 -5,7.1 -16.7,25.1 -26.4,55.1 -26.4,87.5 0,5.5 0.3,10.9 0.8,16.3 h 314.7 c 0.5,-5.4 0.8,-10.8 0.8,-16.3 0,-9.4 -0.8,-18.4 -2.3,-27.2 z"
         id="path509" />
      <g
         id="g515">
	<path
   style="fill:#54c0eb"
   d="m 245.55,29.9 c -0.2,5 -7.4,5.4 -12.1,7.2 -3.4,1.3 -6,4 -8.6,6.5 -6,5.7 -12.8,10.5 -20,14.5 -7.5,4.1 -18,6.6 -23.6,0.2 17.9,-7.4 31.5,-23.5 37.7,-41.8 -8.6,4.7 -15.2,12.3 -22.7,18.7 -8.5,7.1 -18.3,12.7 -26.5,20.1 -8.2,7.5 -14.9,17.8 -14.5,28.8 -0.1,-6.3 -4,-12.3 -9.3,-15.8 -5.3,-3.5 -11.9,-4.8 -18.2,-4.7 -0.2,0 -0.4,0 -0.6,0 23,-30.9 57,-53.1 96.3,-60.7 0.5,-0.1 0.9,-0.2 1.4,-0.3 1.9,8.1 7.1,15.4 14.1,19.8 3.1,1.9 6.8,4 6.6,7.5 z"
   id="path511" />

	<path
   style="fill:#54c0eb"
   d="m 291.85,174.5 c -0.3,-0.6 -0.7,-1.2 -1,-1.8 -2.1,-3.6 -4.2,-7.5 -3.3,-11.6 3.1,-0.4 6.5,-0.2 9.6,0.5 l 0.9,1 c -1.1,2.5 0.1,5.6 2,7.4 1.9,1.9 4.6,3 7.1,4 0.3,0.1 0.7,0.3 1.1,0.4 h 37.4 c 1,-3.5 1.1,-7.3 1.5,-10.9 0.6,-6 3,-13 8.8,-14.7 5.7,-1.7 11.4,2.7 14.9,7.5 3.4,4.8 6.1,10.5 11.1,13.7 0.1,-10.5 0.3,-21 0.4,-31.5 0,-3.8 0.2,-7.8 2.6,-10.7 4.1,-4.8 11.6,-3.6 17.9,-2.3 2,0.5 4.2,0.9 6.2,0.6 -13,-63.5 -64.3,-113.2 -128.8,-123.9 3.9,2.2 7.7,4.6 10.3,7.9 0.7,0.9 1.4,2.1 1.2,3.2 -0.6,2.8 -4.8,2.3 -7.4,3.4 -4.4,2 -3,9.1 1,11.9 4,2.8 9.2,3.2 13.5,5.4 1.7,0.9 3.4,2.4 3.1,4.3 -0.1,1 -0.8,1.8 -1.5,2.6 -5.2,5.8 -10.4,11.7 -15.6,17.6 -1.4,1.4 -2.7,3 -4.5,3.9 -2.3,1.2 -5.1,1.1 -7.8,1 -10.1,-0.3 -22.7,1.9 -25.4,11.6 -0.6,2.4 -0.6,5.2 -2.3,7 -1.5,1.7 -4.2,2.2 -5.4,4.1 -2,3 0.8,6.8 1.3,10.4 0.8,5.7 -5.9,10.9 -11.1,8.8 -0.2,-6.1 -0.4,-12.3 -0.5,-18.4 0,-1 -0.1,-2.1 -0.6,-2.9 -0.6,-1 -1.9,-1.4 -3,-1.7 -5.8,-1.8 -13.1,-3 -17.1,1.5 -4.1,4.5 -2,11.7 1.2,16.9 3.2,5.1 7.6,10.2 7.8,16.2 0.1,3 -1.4,6.4 -4.3,7 -4.3,0.9 -7.1,-4.6 -7.3,-9 -5.5,11.4 -7.4,24.6 -5.2,37.2 -8.9,2.3 -17.7,4.5 -26.6,6.7 -3.2,0.9 -6.7,1.8 -8.8,4.5 -2,2.5 -2.2,6 -2.2,9.1 0,0.7 0.1,1.4 0.1,2 h 128.7 z m 46.1,-26.3 c 0.6,0.6 0.8,1.5 0.8,2.4 0.2,2.2 0.3,4.7 -1.4,6.2 -0.6,0.6 -1.4,1 -2.2,1.2 -6.3,2.1 -13.9,-2.9 -14.5,-9.6 l 1,-0.8 c 4.6,0 9.3,0 13.9,0 0.8,0 1.7,0.1 2.4,0.6 z m -26.6,-43.3 0.6,-0.2 c 1.8,0 3.5,0.1 5.2,0.2 -0.9,3.7 0.2,7.9 2.7,10.8 1.1,1.3 2.5,2.3 3.7,3.6 2.8,3.1 3.6,7.9 2.1,11.8 -3.4,0.3 -6.8,0.5 -10.2,-0.3 -3.3,-0.9 -6.5,-2.9 -7.9,-6 -0.8,-2 -0.9,-4 -1,-6.2 -0.1,-5.1 0.4,-11.1 4.8,-13.7 z m -92.4,28.1 c 2.8,-1.9 6,-3 8.8,-4.9 l 0.6,-5 c 6.1,6.2 13.5,11 21.6,14 3.9,1.5 7.9,2.5 12.1,2.9 4.3,0.4 8.7,0.1 13,-0.2 1.4,-0.2 2.8,-0.3 4.2,-0.3 2.9,-0.2 5.8,-0.5 8.8,-0.7 3.5,-0.2 7.2,-0.6 10,-2.7 1.1,4.3 -0.9,8.9 -4,12 -3.1,3.1 -7.2,5 -11.3,6.8 -5.7,2.6 -11.8,5.2 -17.9,4.3 -5.2,-0.9 -9.6,-4.2 -14.2,-6.6 -6.7,-3.6 -14.3,-5.5 -21.8,-5.5 -2.7,-0.1 -5.4,0.2 -8,-0.5 -2.6,-0.7 -5.1,-2.4 -5.9,-5 -1.1,-3.3 1.2,-6.6 4,-8.6 z"
   id="path513" />

</g>
    </g>
  </g>
</svg>
