<?xml version="1.0" encoding="UTF-8" standalone="no"?>
<!-- Uploaded to: SVG Repo, www.svgrepo.com, Generator: SVG Repo Mixer Tools -->

<svg
   width="2510.1086"
   height="800.00012"
   viewBox="0 0 75.303259 24.000004"
   fill="none"
   version="1.1"
   id="svg1419"
   sodipodi:docname="menu.svg"
   inkscape:version="1.2.2 (732a01da63, 2022-12-09)"
   xmlns:inkscape="http://www.inkscape.org/namespaces/inkscape"
   xmlns:sodipodi="http://sodipodi.sourceforge.net/DTD/sodipodi-0.dtd"
   xmlns="http://www.w3.org/2000/svg"
   xmlns:svg="http://www.w3.org/2000/svg">
  <defs
     id="defs1423" />
  <sodipodi:namedview
     id="namedview1421"
     pagecolor="#505050"
     bordercolor="#eeeeee"
     borderopacity="1"
     inkscape:showpageshadow="0"
     inkscape:pageopacity="0"
     inkscape:pagecheckerboard="0"
     inkscape:deskcolor="#505050"
     showgrid="false"
     inkscape:zoom="0.344375"
     inkscape:cx="1591.2886"
     inkscape:cy="386.2069"
     inkscape:window-width="1366"
     inkscape:window-height="705"
     inkscape:window-x="-8"
     inkscape:window-y="-8"
     inkscape:window-maximized="1"
     inkscape:current-layer="svg1419" />
  <g
     id="g1299">
    <path
       id="rect4457-0"
       style="fill:#28170b;fill-opacity:1;stroke-width:0.14508"
       d="m 6.5707584,6.5796281 c -2.1717583,0 -3.9200976,1.7483978 -3.9200976,3.9201559 v 2.526328 c 0,2.171759 1.7483393,3.920156 3.9200976,3.920156 H 25.242593 v -0.416952 c 0,-0.386883 0.200589,-0.698321 0.449767,-0.698321 0.249175,0 0.449765,0.311438 0.449765,0.698321 v 0.416952 h 0.494297 v -0.416952 c 0,-0.386883 0.200592,-0.698321 0.449767,-0.698321 0.249175,0 0.449765,0.311438 0.449765,0.698321 v 0.416952 h 18.671834 c 2.17176,0 3.920158,-1.748397 3.920158,-3.920156 v -2.526328 c 0,-2.1717581 -1.748398,-3.9201559 -3.920158,-3.9201559 H 27.535954 v 0.3926366 c 0,0.3868824 -0.20059,0.6983789 -0.449765,0.6983789 -0.249175,0 -0.449767,-0.3114965 -0.449767,-0.6983789 V 6.5796281 h -0.494297 v 0.3926366 c 0,0.3868824 -0.20059,0.6983789 -0.449765,0.6983789 -0.249178,0 -0.449767,-0.3114965 -0.449767,-0.6983789 V 6.5796281 Z" />
    <g
       id="g509"
       transform="matrix(0.24,0,0,0.24,0.20495761,-0.37208399)"
       style="fill:#f0e68c;fill-opacity:1">
      <circle
         style="fill:#f0e68c;fill-opacity:1;stroke:#28170b;stroke-width:0.406199"
         id="path387"
         cx="20.276382"
         cy="50.562622"
         r="5.001545" />
      <circle
         style="fill:#f0e68c;fill-opacity:1;stroke:#28170b;stroke-width:0.406199"
         id="circle412"
         cx="200.31268"
         cy="50.562622"
         r="5.001545" />
    </g>
    <g
       id="g505"
       transform="matrix(0.24,0,0,0.24,1.6488187,-0.27097727)">
      <rect
         style="fill:#aa4400;stroke:#28170b;stroke-width:0.6045"
         id="rect466"
         width="5.8076224"
         height="57.713249"
         x="50.090744"
         y="-24.682394"
         ry="2.9038112" />
      <rect
         style="fill:#aa4400;stroke:#28170b;stroke-width:0.6045"
         id="rect468"
         width="5.8076224"
         height="57.713249"
         x="150.27223"
         y="-24.682394"
         ry="2.9038112" />
      <rect
         style="fill:#aa4400;stroke:#28170b;stroke-width:0.6045"
         id="rect470"
         width="5.8076224"
         height="57.713249"
         x="50.090744"
         y="66.787659"
         ry="2.9038112" />
      <rect
         style="fill:#aa4400;stroke:#28170b;stroke-width:0.6045"
         id="rect472"
         width="5.8076224"
         height="57.713249"
         x="150.27223"
         y="66.787659"
         ry="2.9038112" />
    </g>
  </g>
  <path
     id="path3278"
     style="fill:#a3aaaf;fill-opacity:1;stroke-width:0.121903"
     d="m -55.438984,44.525108 -5.03187,4.999329 a 0.8325123,0.8325123 0 0 0 -0.0038,1.177328 l 4.868643,4.900589 a 1.4654077,1.4654077 0 0 0 1.039548,0.432603 h 37.496521 a 0.9493704,0.9493704 0 0 0 0.73051,-0.34302 l 4.093018,-4.931127 a 1.0251978,1.0251978 0 0 0 0.0051,-1.303417 l -3.994486,-4.889098 a 1.036961,1.036961 0 0 0 -0.803024,-0.380881 h -10.290409 v 1.246524 c 0,0.341258 -0.274738,0.615937 -0.615996,0.615937 -0.341259,0 -0.615996,-0.274679 -0.615996,-0.615937 v -1.246524 h -15.646176 v 1.246524 c 0,0.341258 -0.274737,0.615937 -0.615996,0.615937 -0.341259,0 -0.615996,-0.274679 -0.615996,-0.615937 v -1.246524 h -9.180582 a 1.1620465,1.1620465 0 0 0 -0.819019,0.337694 z" />
  <rect
     style="fill:#cccccc;stroke-width:0.14508"
     id="rect2196"
     width="75.303261"
     height="24.000004"
     x="-80.738747"
     y="-18.990925" />
  <g
     id="g2369"
     transform="translate(62.420686,-9.5607989)"
     style="fill:#a3aaaf;fill-opacity:1;stroke:#28170b;stroke-opacity:1">
    <path
       d="m -5.4354839,23.560801 c 1.10457,0 2,-0.8954 2,-2 0,-1.1046 -0.89543,-2 -2,-2 -1.10457,0 -2,0.8954 -2,2"
       stroke="#1c274c"
       stroke-width="1.5"
       stroke-linecap="round"
       id="path1413"
       style="fill:#a3aaaf;fill-opacity:1;stroke:#28170b;stroke-opacity:1" />
    <circle
       cx="1.5645161"
       cy="21.560801"
       r="2"
       stroke="#1c274c"
       stroke-width="1.5"
       id="circle1415"
       style="fill:#a3aaaf;fill-opacity:1;stroke:#28170b;stroke-opacity:1" />
    <path
       d="m 10.564516,21.560801 c 0,1.1046 -0.8953999,2 -1.9999999,2 -1.1046,0 -2,-0.8954 -2,-2 0,-1.1046 0.8954,-2 2,-2"
       stroke="#1c274c"
       stroke-width="1.5"
       stroke-linecap="round"
       id="path1417"
       style="fill:#a3aaaf;fill-opacity:1;stroke:#28170b;stroke-opacity:1" />
  </g>
  <path
     id="path3104"
     style="font-size:7.65421px;font-family:'Berlin Sans FB';-inkscape-font-specification:'Berlin Sans FB';fill:#ff6100;stroke-width:1.3881"
     d="M 17.662266 9.3782813 C 17.490345 9.3782813 17.234951 9.4007569 16.896094 9.4456055 C 16.838787 9.4530802 16.810137 9.4804719 16.810137 9.5278125 C 16.810137 9.8143468 16.822606 10.245416 16.84752 10.820977 C 16.869216 11.274645 16.882316 11.638131 16.886836 11.912227 L 17.752852 11.912227 C 17.752269 11.815706 17.751973 11.728389 17.751973 11.650664 C 17.751973 11.610804 17.761922 11.58341 17.781856 11.568457 C 17.806776 11.585897 17.822956 11.603283 17.83043 11.620723 C 18.258986 12.59743 18.576713 13.332502 18.783516 13.82584 C 18.940487 14.189614 19.061321 14.472399 19.146035 14.674219 C 19.170951 14.716572 19.300477 14.737734 19.534688 14.737734 C 19.696643 14.737734 19.786369 14.721554 19.803809 14.68916 C 19.948321 14.350303 20.059205 14.067517 20.136445 13.840781 C 20.60985 12.662253 20.910077 11.93719 21.037149 11.665606 C 21.049602 11.638199 21.067046 11.624473 21.089473 11.624473 C 21.109406 11.624473 21.119356 11.648148 21.119356 11.695488 C 21.119356 12.011922 21.109406 12.486567 21.089473 13.119434 C 21.069539 13.752301 21.05959 14.226946 21.05959 14.543379 C 21.05959 14.625602 21.090695 14.666719 21.152988 14.666719 C 21.197837 14.666719 21.266346 14.663001 21.358535 14.655527 C 21.450727 14.648054 21.519294 14.644336 21.564141 14.644336 C 21.60899 14.644336 21.67624 14.648054 21.765938 14.655527 C 21.85813 14.663001 21.926638 14.666719 21.971484 14.666719 C 22.033771 14.666719 22.064942 14.635607 22.064942 14.57332 C 22.064942 14.301735 22.053735 13.891824 22.031309 13.343672 C 22.011375 12.795519 22.001367 12.384408 22.001367 12.110332 C 22.001367 11.823798 22.010119 11.394045 22.027559 10.820977 C 22.047492 10.245416 22.057442 9.8143468 22.057442 9.5278125 C 22.057442 9.4680139 22.02633 9.4381055 21.964043 9.4381055 C 21.879329 9.4381055 21.751003 9.4331308 21.579082 9.4231641 C 21.409653 9.4131975 21.282586 9.4082227 21.197871 9.4082227 C 21.153022 9.4082227 21.111905 9.4567729 21.074531 9.5539454 C 20.474055 11.143587 20.004386 12.342096 19.665527 13.149375 C 19.583302 13.348704 19.529718 13.44832 19.504805 13.44832 C 19.484872 13.44832 19.423855 13.326228 19.321699 13.082051 C 18.88816 12.040561 18.369882 10.857095 17.766914 9.5315625 C 17.722062 9.4294069 17.687179 9.3782813 17.662266 9.3782813 z M 16.883965 12.434883 C 16.877862 12.680472 16.865754 12.986911 16.84752 13.354922 C 16.846266 13.382629 16.845077 13.409706 16.843887 13.436719 L 17.773184 13.436719 C 17.771307 13.328952 17.769216 13.215782 17.766914 13.097051 C 17.763133 12.853169 17.760062 12.632502 17.757715 12.434883 L 16.883965 12.434883 z M 16.82332 13.959434 C 16.814576 14.219493 16.810137 14.431847 16.810137 14.595703 C 16.810137 14.643043 16.841307 14.666719 16.903594 14.666719 C 16.948443 14.666719 17.014435 14.663001 17.101641 14.655527 C 17.191341 14.648054 17.25865 14.644336 17.303496 14.644336 C 17.345853 14.644336 17.410587 14.648054 17.497793 14.655527 C 17.584996 14.663001 17.649789 14.666719 17.692149 14.666719 C 17.754442 14.666719 17.785606 14.625602 17.785606 14.543379 C 17.785606 14.386912 17.784105 14.19207 17.781152 13.959434 L 16.82332 13.959434 z " />
  <path
     d="m 26.396584,13.915516 q 0,0.0598 -0.0299,0.171921 -0.03364,0.142021 -0.04111,0.17192 -0.01121,0.134547 -0.05232,0.392428 -0.01869,0.06727 -0.09717,0.06727 -0.03737,0 -0.142022,-0.01495 -0.459701,-0.06727 -1.423952,-0.06727 -0.272831,0 -0.822229,0.01495 -0.549399,0.01495 -0.82223,0.01495 -0.123334,0 -0.123334,-0.108385 0,-0.41859 0.04485,-1.255769 0.04859,-0.840917 0.04859,-1.259506 0,-0.426065 -0.04485,-1.588398 -0.0075,-0.298993 -0.04111,-0.8932406 l -0.0037,-0.052324 q -0.0037,-0.08596 0.09717,-0.08596 0.261618,0 0.784855,0.01495 0.523237,0.01495 0.784856,0.01495 0.250406,0 0.747481,-0.01495 0.500813,-0.01495 0.751219,-0.01495 0.175658,0 0.190608,0.1083848 0.07849,0.4933378 0.07849,0.6129348 0,0.08596 -0.08222,0.08596 -0.317679,0 -0.964251,-0.03364 -0.642834,-0.03737 -0.967988,-0.03737 -0.306468,0 -0.388691,0.08222 -0.07849,0.08222 -0.07849,0.407378 v 0.556874 q 0,0.227981 0.01121,0.265355 0.03364,0.11586 0.194345,0.11586 0.04485,0 0.127072,-0.0037 0.08596,0 0.127072,0 0.732532,0 1.315567,-0.02616 0.227982,-0.0075 0.538187,-0.03737 0.07849,-0.0075 0.07849,0.06727 0,0.119597 -0.0299,0.366266 -0.02616,0.246669 -0.02616,0.370003 0,0.06727 -0.112122,0.06727 -0.04485,0 -0.332629,-0.02616 -0.209295,-0.02243 -0.941827,-0.02243 -0.616672,0 -0.781118,0.01495 -0.149496,0.01121 -0.171921,0.156971 0.0037,-0.02616 0.0037,0.28778 v 0.553137 q 0,0.38869 0.119597,0.485863 0.09343,0.07848 0.467176,0.07848 l 0.411115,-0.0037 q 0.261618,0 1.468801,-0.0897 l 0.05606,-0.0037 q 0.07475,-0.0075 0.07475,0.09343 z"
     id="path3106"
     style="font-size:7.65421px;font-family:'Berlin Sans FB';-inkscape-font-specification:'Berlin Sans FB';fill:#ff6100;stroke-width:1.3881" />
  <path
     d="m 31.67754,9.5053753 q 0,0.4298018 -0.0299,1.2968807 -0.0299,0.867078 -0.0299,1.300617 0,0.407378 0.0075,1.222132 0.0075,0.811018 0.0075,1.218395 0,0.123335 -0.09343,0.123335 -0.05606,0 -0.168183,-0.01121 -0.112122,-0.01121 -0.168183,-0.01121 -0.0598,0 -0.183133,0.01121 -0.123335,0.01121 -0.183133,0.01121 -0.06727,0 -0.160709,-0.123335 -0.80728,-1.087585 -2.448002,-3.244069 -0.254143,-0.328892 -0.295255,-0.366266 -0.03737,0 -0.03737,0.153234 0,0.57556 0.01869,1.730419 0.01869,1.151122 0.01869,1.726682 0,0.123335 -0.07475,0.123335 -0.06354,0 -0.194345,-0.01121 -0.130809,-0.01121 -0.194345,-0.01121 -0.06727,0 -0.20182,0.01121 -0.13081,0.01121 -0.198083,0.01121 -0.09344,0 -0.09344,-0.07475 0,-0.411115 0.03737,-1.237082 0.04111,-0.829705 0.04111,-1.244557 0,-0.452226 -0.03364,-1.629509 -0.0075,-0.306468 -0.03737,-0.9194026 l -0.0037,-0.048586 q -0.0037,-0.056061 0.0897,-0.059798 0.242932,-0.00374 0.381216,-0.01495 0.05232,-0.00374 0.198082,-0.029899 0.123335,-0.022424 0.194345,-0.022424 0.03364,0 0.11586,0.1083848 0.859604,1.1810208 2.631135,3.5131628 0.07849,0.09717 0.145759,0.168183 0.02616,-0.156971 0.02616,-0.717582 0,-0.485863 -0.03738,-1.457589 -0.03364,-0.971726 -0.03364,-1.4538511 0,-0.1233344 0.07475,-0.1233344 0.06727,0 0.20182,0.011212 0.138284,0.011212 0.205557,0.011212 0.07101,0 0.213033,-0.011212 0.142021,-0.011212 0.213032,-0.011212 0.07849,0 0.07849,0.082223 z"
     id="path3108"
     style="font-size:7.65421px;font-family:'Berlin Sans FB';-inkscape-font-specification:'Berlin Sans FB';fill:#ff6100;stroke-width:1.3881" />
  <path
     d="m 36.75294,9.5053753 q 0,0.4335392 -0.03737,1.3006177 -0.03364,0.863341 -0.03364,1.29688 0,0.142022 0.0037,0.426065 0.0037,0.280305 0.0037,0.418589 0,0.781118 -0.145759,1.083848 -0.224245,0.463439 -0.870816,0.627885 -0.396165,0.10091 -1.117485,0.10091 -1.308092,0 -1.71547,-0.433539 -0.313942,-0.336367 -0.313942,-1.345467 0,-0.123334 0.0037,-0.414852 0.0037,-0.295255 0.0037,-0.463439 0,-0.441014 -0.03737,-1.625772 0,-0.306467 -0.03364,-0.9156646 -0.0037,-0.044849 -0.0037,-0.059799 0,-0.078485 0.09717,-0.078485 0.153234,0 0.414853,0.00374 0.302729,0.00374 0.411114,0.00374 0.08596,0 0.08596,0.067273 0,0.5680856 -0.02616,1.7079956 -0.02242,1.139909 -0.02242,1.707995 0,0.642834 0.287781,0.870816 0.246669,0.20182 0.90819,0.20182 0.601722,0 0.855866,-0.164446 0.321417,-0.205558 0.321417,-0.769906 0,-0.590511 -0.01869,-1.771531 -0.01869,-1.184758 -0.01869,-1.7752687 0,-0.059799 0.108385,-0.074748 0.07849,-0.011212 0.224244,0 0.171921,0.01495 0.164446,0.01495 0.06727,0 0.20182,-0.011212 0.138284,-0.011212 0.205557,-0.011212 0.09344,0 0.09344,0.082223 z"
     id="path3110"
     style="font-size:7.65421px;font-family:'Berlin Sans FB';-inkscape-font-specification:'Berlin Sans FB';fill:#ff6100;stroke-width:1.3881" />
</svg>
