<?xml version="1.0" encoding="UTF-8" standalone="no"?>
<!-- Created with Inkscape (http://www.inkscape.org/) -->

<svg
   version="1.1"
   id="svg1"
   width="1343.5907"
   height="608.50757"
   viewBox="0 0 1343.5907 608.50757"
   sodipodi:docname="wishlist.svg"
   inkscape:version="1.2.2 (732a01da63, 2022-12-09)"
   xml:space="preserve"
   xmlns:inkscape="http://www.inkscape.org/namespaces/inkscape"
   xmlns:sodipodi="http://sodipodi.sourceforge.net/DTD/sodipodi-0.dtd"
   xmlns="http://www.w3.org/2000/svg"
   xmlns:svg="http://www.w3.org/2000/svg"><defs
     id="defs1">
		
		
	</defs><sodipodi:namedview
     id="namedview1"
     pagecolor="#ffffff"
     bordercolor="#cccccc"
     borderopacity="1"
     inkscape:showpageshadow="0"
     inkscape:pageopacity="1"
     inkscape:pagecheckerboard="0"
     inkscape:deskcolor="#d1d1d1"
     showgrid="false"
     inkscape:zoom="0.1721875"
     inkscape:cx="-775.3176"
     inkscape:cy="232.3049"
     inkscape:window-width="1366"
     inkscape:window-height="705"
     inkscape:window-x="-8"
     inkscape:window-y="-8"
     inkscape:window-maximized="1"
     inkscape:current-layer="g1" /><g
     inkscape:groupmode="layer"
     inkscape:label="Image"
     id="g1"
     transform="translate(-471.15741,-35.398952)"><rect
       style="fill:#f0e68c;stroke:#28170b;stroke-width:4.836"
       id="rect389"
       width="1338.7546"
       height="603.67157"
       x="510.53488"
       y="-898.48993"
       ry="0" /><path
       style="fill:#4c8c87;stroke-width:4.26815"
       d="M 192.68044,299.42081 V -159.4732 l -127.664528,-55.84869 -577.821642,468.89855 259.78926,85.35439 h 406.18668 c 21.81876,-0.004 39.51023,-17.69147 39.51023,-39.51024 z"
       id="path288" /><path
       d="m -120.91784,-12.188941 c -7.0117,-11.68617 -18.6978,-19.866489 -32.7213,-19.866489 -19.8665,0 -35.0585,15.192019 -35.0585,35.058519 0,38.564366 21.0351,44.407456 67.7798,88.814916 46.744695,-44.40746 67.779795,-50.25055 67.779795,-88.814916 0,-19.8665 -15.192,-35.058519 -35.0585,-35.058519 -14.023395,0 -25.709595,8.180319 -32.721295,19.866489 z"
       id="path4"
       style="fill:#ff0707;stroke-width:1.16861" /><g
       style="fill:#ffd15c;fill-opacity:1"
       id="g432"
       transform="matrix(25,0,0,25,-1171.9679,-1253.626)"><path
         d="M 25,8.9 C 24.9,8.4 24.5,8 24,8 H 21 V 7 C 21,4.2 18.8,2 16,2 13.2,2 11,4.2 11,7 V 8 H 8 C 7.5,8 7.1,8.4 7,8.9 l -2,20 c 0,0.3 0.1,0.6 0.3,0.8 C 5.5,29.9 5.7,30 6,30 h 20 c 0.3,0 0.6,-0.1 0.7,-0.3 0.1,-0.2 0.3,-0.5 0.3,-0.8 z M 13,7 c 0,-1.7 1.3,-3 3,-3 1.7,0 3,1.3 3,3 v 1 h -6 z"
         id="path424"
         style="fill:#ffd15c;fill-opacity:1" /></g><g
       id="g538"
       transform="matrix(0.74626263,0,0,0.74626263,-289.42924,234.31255)"
       style="opacity:0.311031"><path
         style="fill:#f8b64c"
         d="m 39.65,425.4 v 61.4 c 0,11.7 9.5,21.2 21.2,21.2 h 386.3 c 11.7,0 21.2,-9.5 21.2,-21.2 v -61.4 z"
         id="path485" /><rect
         x="39.849998"
         y="174.5"
         style="fill:#ffd15c"
         width="428.5"
         height="250.89999"
         id="rect487" /><rect
         x="65.050003"
         y="130.5"
         style="fill:#40596b"
         width="378"
         height="43.900002"
         id="rect489" /><polygon
         style="fill:#334a5e"
         points="90.35,174.5 39.85,174.5 90.35,148.5 "
         id="polygon491" /><polygon
         style="fill:#f8b64c"
         points="65.05,161.5 90.35,148.5 65.05,130.5 "
         id="polygon493" /><polygon
         style="fill:#334a5e"
         points="417.75,174.5 468.25,174.5 417.75,148.5 "
         id="polygon495" /><polygon
         style="fill:#f8b64c"
         points="443.05,161.5 417.75,148.5 443.05,130.5 "
         id="polygon497" /><g
         id="g503">
	<circle
   style="fill:#40596b"
   cx="167.25"
   cy="227.5"
   r="16.700001"
   id="circle499" />
	<circle
   style="fill:#40596b"
   cx="340.85001"
   cy="227.5"
   r="16.700001"
   id="circle501" />
</g><path
         style="fill:#f8b64c"
         d="m 334.05,299.2 v 9.7 c 0,44.1 -35.9,80 -80,80 -44.1,0 -80,-35.9 -80,-80 v -9.7 h -13.5 v 9.7 c 0,51.6 41.9,93.5 93.5,93.5 51.6,0 93.5,-41.9 93.5,-93.5 v -9.7 z"
         id="path505" /><path
         style="fill:#f2f2f2"
         d="m 340.85,220.7 c -3.7,0 -6.7,3 -6.7,6.7 v 74.7 c 0,44.1 -35.9,80 -80,80 -44.1,0 -80,-35.9 -80,-80 v -74.7 c 0,-3.7 -3,-6.7 -6.7,-6.7 -3.7,0 -6.7,3 -6.7,6.7 v 74.7 c 0,51.6 41.9,93.5 93.5,93.5 51.6,0 93.5,-41.9 93.5,-93.5 v -74.7 c -0.2,-3.7 -3.2,-6.7 -6.9,-6.7 z"
         id="path507" /><path
         style="fill:#84dbff"
         d="m 409.95,131.1 c -0.3,-1.6 -0.6,-3.2 -0.9,-4.8 -13,-63.7 -64.3,-113.4 -128.8,-124.1 -4.7,-0.8 -9.5,-1.4 -14.3,-1.7 -3.9,-0.4 -7.9,-0.5 -11.9,-0.5 -9.9,0 -19.6,0.9 -29,2.7 -0.5,0.1 -0.9,0.2 -1.4,0.3 -39.3,7.7 -73.4,29.8 -96.3,60.7 -1.8,2.3 -3.4,4.7 -5,7.1 -16.7,25.1 -26.4,55.1 -26.4,87.5 0,5.5 0.3,10.9 0.8,16.3 h 314.7 c 0.5,-5.4 0.8,-10.8 0.8,-16.3 0,-9.4 -0.8,-18.4 -2.3,-27.2 z"
         id="path509" /><g
         id="g515">
	<path
   style="fill:#54c0eb"
   d="m 245.55,29.9 c -0.2,5 -7.4,5.4 -12.1,7.2 -3.4,1.3 -6,4 -8.6,6.5 -6,5.7 -12.8,10.5 -20,14.5 -7.5,4.1 -18,6.6 -23.6,0.2 17.9,-7.4 31.5,-23.5 37.7,-41.8 -8.6,4.7 -15.2,12.3 -22.7,18.7 -8.5,7.1 -18.3,12.7 -26.5,20.1 -8.2,7.5 -14.9,17.8 -14.5,28.8 -0.1,-6.3 -4,-12.3 -9.3,-15.8 -5.3,-3.5 -11.9,-4.8 -18.2,-4.7 -0.2,0 -0.4,0 -0.6,0 23,-30.9 57,-53.1 96.3,-60.7 0.5,-0.1 0.9,-0.2 1.4,-0.3 1.9,8.1 7.1,15.4 14.1,19.8 3.1,1.9 6.8,4 6.6,7.5 z"
   id="path511" />
	<path
   style="fill:#54c0eb"
   d="m 291.85,174.5 c -0.3,-0.6 -0.7,-1.2 -1,-1.8 -2.1,-3.6 -4.2,-7.5 -3.3,-11.6 3.1,-0.4 6.5,-0.2 9.6,0.5 l 0.9,1 c -1.1,2.5 0.1,5.6 2,7.4 1.9,1.9 4.6,3 7.1,4 0.3,0.1 0.7,0.3 1.1,0.4 h 37.4 c 1,-3.5 1.1,-7.3 1.5,-10.9 0.6,-6 3,-13 8.8,-14.7 5.7,-1.7 11.4,2.7 14.9,7.5 3.4,4.8 6.1,10.5 11.1,13.7 0.1,-10.5 0.3,-21 0.4,-31.5 0,-3.8 0.2,-7.8 2.6,-10.7 4.1,-4.8 11.6,-3.6 17.9,-2.3 2,0.5 4.2,0.9 6.2,0.6 -13,-63.5 -64.3,-113.2 -128.8,-123.9 3.9,2.2 7.7,4.6 10.3,7.9 0.7,0.9 1.4,2.1 1.2,3.2 -0.6,2.8 -4.8,2.3 -7.4,3.4 -4.4,2 -3,9.1 1,11.9 4,2.8 9.2,3.2 13.5,5.4 1.7,0.9 3.4,2.4 3.1,4.3 -0.1,1 -0.8,1.8 -1.5,2.6 -5.2,5.8 -10.4,11.7 -15.6,17.6 -1.4,1.4 -2.7,3 -4.5,3.9 -2.3,1.2 -5.1,1.1 -7.8,1 -10.1,-0.3 -22.7,1.9 -25.4,11.6 -0.6,2.4 -0.6,5.2 -2.3,7 -1.5,1.7 -4.2,2.2 -5.4,4.1 -2,3 0.8,6.8 1.3,10.4 0.8,5.7 -5.9,10.9 -11.1,8.8 -0.2,-6.1 -0.4,-12.3 -0.5,-18.4 0,-1 -0.1,-2.1 -0.6,-2.9 -0.6,-1 -1.9,-1.4 -3,-1.7 -5.8,-1.8 -13.1,-3 -17.1,1.5 -4.1,4.5 -2,11.7 1.2,16.9 3.2,5.1 7.6,10.2 7.8,16.2 0.1,3 -1.4,6.4 -4.3,7 -4.3,0.9 -7.1,-4.6 -7.3,-9 -5.5,11.4 -7.4,24.6 -5.2,37.2 -8.9,2.3 -17.7,4.5 -26.6,6.7 -3.2,0.9 -6.7,1.8 -8.8,4.5 -2,2.5 -2.2,6 -2.2,9.1 0,0.7 0.1,1.4 0.1,2 h 128.7 z m 46.1,-26.3 c 0.6,0.6 0.8,1.5 0.8,2.4 0.2,2.2 0.3,4.7 -1.4,6.2 -0.6,0.6 -1.4,1 -2.2,1.2 -6.3,2.1 -13.9,-2.9 -14.5,-9.6 l 1,-0.8 c 4.6,0 9.3,0 13.9,0 0.8,0 1.7,0.1 2.4,0.6 z m -26.6,-43.3 0.6,-0.2 c 1.8,0 3.5,0.1 5.2,0.2 -0.9,3.7 0.2,7.9 2.7,10.8 1.1,1.3 2.5,2.3 3.7,3.6 2.8,3.1 3.6,7.9 2.1,11.8 -3.4,0.3 -6.8,0.5 -10.2,-0.3 -3.3,-0.9 -6.5,-2.9 -7.9,-6 -0.8,-2 -0.9,-4 -1,-6.2 -0.1,-5.1 0.4,-11.1 4.8,-13.7 z m -92.4,28.1 c 2.8,-1.9 6,-3 8.8,-4.9 l 0.6,-5 c 6.1,6.2 13.5,11 21.6,14 3.9,1.5 7.9,2.5 12.1,2.9 4.3,0.4 8.7,0.1 13,-0.2 1.4,-0.2 2.8,-0.3 4.2,-0.3 2.9,-0.2 5.8,-0.5 8.8,-0.7 3.5,-0.2 7.2,-0.6 10,-2.7 1.1,4.3 -0.9,8.9 -4,12 -3.1,3.1 -7.2,5 -11.3,6.8 -5.7,2.6 -11.8,5.2 -17.9,4.3 -5.2,-0.9 -9.6,-4.2 -14.2,-6.6 -6.7,-3.6 -14.3,-5.5 -21.8,-5.5 -2.7,-0.1 -5.4,0.2 -8,-0.5 -2.6,-0.7 -5.1,-2.4 -5.9,-5 -1.1,-3.3 1.2,-6.6 4,-8.6 z"
   id="path513" />
</g></g><g
       id="g414"
       transform="translate(86.238816)"
       style="opacity:0.4109589"><rect
         style="opacity:0.311031;fill:#80c1be;fill-opacity:1;stroke:none;stroke-width:2.75977"
         id="rect540"
         width="456.53995"
         height="456.53995"
         x="828.44397"
         y="111.38277"
         ry="228.26997" /><g
         id="g310"
         transform="matrix(1.3708427,0,0,1.3708427,937.66521,184.32851)"
         style="opacity:0.529837">
			<g
   id="g308">
				<g
   id="g298">
					<polygon
   style="fill:#eac873"
   points="147.425,144.972 157.524,57.577 89.161,57.577 75.566,144.972 "
   id="polygon290" />
					<polygon
   style="fill:#e5bc61"
   points="157.524,57.577 147.425,144.972 165.29,144.972 "
   id="polygon292" />
					<polygon
   style="fill:#d6ae54"
   points="157.524,57.577 147.425,144.972 156.357,134.485 "
   id="polygon294" />
					<polygon
   style="fill:#eac873"
   points="157.524,57.577 165.29,144.972 156.357,134.485 "
   id="polygon296" />
				</g>
				<g
   id="g302">
					<path
   style="fill:#876b66"
   d="m 134.985,60.543 -2.314,-0.298 c 0.033,-0.253 3.141,-25.287 -5.031,-34.577 -1.978,-2.248 -4.398,-3.34 -7.406,-3.34 -3.007,0 -5.428,1.092 -7.407,3.341 -8.176,9.298 -5.063,34.324 -5.03,34.576 l -2.313,0.298 c -0.139,-1.071 -3.272,-26.333 5.595,-36.413 2.412,-2.742 5.491,-4.132 9.155,-4.132 3.664,0 6.743,1.39 9.156,4.132 8.867,10.08 5.731,35.342 5.595,36.413 z"
   id="path300" />
				</g>
				<path
   style="fill:#876b66"
   d="m 106.859,58.548 c -1.839,0 -3.328,1.49 -3.328,3.327 0,1.836 1.489,3.326 3.328,3.326 1.834,0 3.324,-1.489 3.324,-3.326 0,-1.837 -1.49,-3.327 -3.324,-3.327 z m 0,4.905 c -0.873,0 -1.579,-0.707 -1.579,-1.579 0,-0.872 0.706,-1.579 1.579,-1.579 0.869,0 1.577,0.707 1.577,1.579 0,0.872 -0.708,1.579 -1.577,1.579 z"
   id="path304" />
				<path
   style="fill:#876b66"
   d="m 133.806,58.548 c -1.839,0 -3.328,1.49 -3.328,3.327 0,1.836 1.489,3.326 3.328,3.326 1.834,0 3.324,-1.489 3.324,-3.326 0,-1.837 -1.49,-3.327 -3.324,-3.327 z m 0,4.905 c -0.874,0 -1.58,-0.707 -1.58,-1.579 0,-0.872 0.706,-1.579 1.58,-1.579 0.868,0 1.576,0.707 1.576,1.579 0,0.872 -0.708,1.579 -1.576,1.579 z"
   id="path306" />
			</g>
		</g><path
         d="m 1097.9441,298.72834 c -3.4771,-7.47694 -9.2724,-12.71081 -16.2267,-12.71081 -9.8519,0 -17.3857,9.72003 -17.3857,22.43084 0,24.67393 10.4314,28.41241 33.6124,56.8248 23.1809,-28.41239 33.6123,-32.15087 33.6123,-56.8248 0,-12.71081 -7.5338,-22.43084 -17.3857,-22.43084 -6.9542,0 -12.7495,5.23387 -16.2266,12.71081 z"
         id="path748"
         style="opacity:0.589219;fill:#ff0707;stroke-width:0.658257" /><g
         id="g332"
         transform="matrix(1.3708427,0,0,1.3708427,937.66521,184.32851)">
			<g
   id="g330">
				<g
   id="g320">
					<polygon
   style="fill:#ef8067"
   points="94.003,167.437 104.102,80.041 35.74,80.041 22.144,167.437 "
   id="polygon312" />
					<polygon
   style="fill:#ef8067"
   points="104.102,80.041 94.003,167.437 111.868,167.437 "
   id="polygon314" />
					<polygon
   style="fill:#e54c3c"
   points="104.102,80.041 94.003,167.437 102.936,156.949 "
   id="polygon316" />
					<polygon
   style="fill:#ea6d59"
   points="104.102,80.041 111.868,167.437 102.936,156.949 "
   id="polygon318" />
				</g>
				<g
   id="g324">
					<path
   style="fill:#876b66"
   d="m 81.563,83.007 -2.312,-0.298 c 0.031,-0.252 3.14,-25.287 -5.033,-34.577 -1.977,-2.248 -4.398,-3.34 -7.406,-3.34 -3.005,0 -5.428,1.092 -7.407,3.341 -8.175,9.298 -5.064,34.324 -5.03,34.576 l -2.312,0.298 c -0.139,-1.071 -3.272,-26.333 5.594,-36.412 2.412,-2.742 5.491,-4.133 9.155,-4.133 3.665,0 6.744,1.391 9.156,4.133 8.868,10.08 5.731,35.342 5.595,36.412 z"
   id="path322" />
				</g>
				<path
   style="fill:#876b66"
   d="m 53.437,81.012 c -1.839,0 -3.326,1.49 -3.326,3.327 0,1.836 1.487,3.326 3.326,3.326 1.834,0 3.324,-1.489 3.324,-3.326 0,-1.837 -1.49,-3.327 -3.324,-3.327 z m 0,4.906 c -0.873,0 -1.579,-0.707 -1.579,-1.579 0,-0.872 0.706,-1.578 1.579,-1.578 0.869,0 1.577,0.706 1.577,1.578 0,0.872 -0.708,1.579 -1.577,1.579 z"
   id="path326" />
				<path
   style="fill:#876b66"
   d="m 80.385,81.012 c -1.84,0 -3.329,1.49 -3.329,3.327 0,1.836 1.489,3.326 3.329,3.326 1.833,0 3.324,-1.489 3.324,-3.326 0,-1.837 -1.491,-3.327 -3.324,-3.327 z m 0,4.906 c -0.875,0 -1.581,-0.707 -1.581,-1.579 0,-0.872 0.706,-1.578 1.581,-1.578 0.868,0 1.575,0.706 1.575,1.578 0,0.872 -0.707,1.579 -1.575,1.579 z"
   id="path328" />
			</g>
		</g><path
         d="m 1024.7765,331.87609 c -3.4771,-7.47695 -9.2724,-12.71081 -16.2266,-12.71081 -9.85199,0 -17.38579,9.72002 -17.38579,22.43084 0,24.67393 10.43139,28.41241 33.61239,56.8248 23.181,-28.41239 33.6123,-32.15087 33.6123,-56.8248 0,-12.71082 -7.5338,-22.43084 -17.3857,-22.43084 -6.9542,0 -12.7495,5.23386 -16.2266,12.71081 z"
         id="path699"
         style="opacity:0.529837;fill:#ff0707;stroke-width:0.658257" /></g></g></svg>
